<svg width="145" height="140" viewBox="0 0 145 140" fill="none" xmlns="http://www.w3.org/2000/svg">
<g clip-path="url(#clip0_305_38696)">
<mask id="mask0_305_38696" style="mask-type:luminance" maskUnits="userSpaceOnUse" x="0" y="0" width="145" height="139">
<path d="M126.526 92.2474C124.038 99.9229 121.443 107.565 117.455 114.62C115.371 118.307 112.796 121.909 109.093 123.974C95.7586 131.41 81.0445 122.392 67.1312 128.026C60.2611 130.807 53.877 134.841 46.7236 136.789C34.5416 140.106 20.7345 136.649 11.5645 127.986C2.39655 119.322 -1.81561 105.753 0.842323 93.435C2.65821 85.0234 7.36812 77.4422 9.11516 69.0168C10.4313 62.6703 10.7461 54.3293 9.03646 48.0123C7.81472 43.4993 4.93251 39.7165 4.18687 34.8992C2.65035 24.978 12.0879 13.1134 19.8157 8.04286C27.5141 2.99196 36.3535 -1.06368 45.791 0.249593C52.9897 1.25074 59.6847 4.42301 66.1495 7.73466C75.4237 12.4852 81.9476 13.8809 91.688 10.5261C102.326 6.86307 114.161 4.12659 124.988 8.69655C138.97 14.5994 145.99 31.2519 144.813 46.3555C143.432 64.0719 131.708 76.2663 126.526 92.2454V92.2474Z" fill="white"/>
</mask>
<g mask="url(#mask0_305_38696)">
<path d="M126.526 92.2474C124.038 99.9229 121.443 107.565 117.455 114.62C115.371 118.307 112.796 121.909 109.093 123.974C95.7586 131.41 81.0445 122.392 67.1312 128.026C60.2611 130.807 53.877 134.841 46.7236 136.789C34.5416 140.106 20.7345 136.649 11.5645 127.986C2.39655 119.322 -1.81561 105.753 0.842323 93.435C2.65821 85.0234 7.36812 77.4422 9.11516 69.0168C10.4313 62.6703 10.7461 54.3293 9.03646 48.0123C7.81472 43.4993 4.93251 39.7165 4.18687 34.8992C2.65035 24.978 12.0879 13.1134 19.8157 8.04286C27.5141 2.99196 36.3535 -1.06368 45.791 0.249593C52.9897 1.25074 59.6847 4.42301 66.1495 7.73466C75.4237 12.4852 81.9476 13.8809 91.688 10.5261C102.326 6.86307 114.161 4.12659 124.988 8.69655C138.97 14.5994 145.99 31.2519 144.813 46.3555C143.432 64.0719 131.708 76.2663 126.526 92.2454V92.2474Z" fill="#F02E2E"/>
<path d="M14.5009 16.1543C14.1586 16.1543 14.1586 16.6863 14.5009 16.6863C14.8432 16.6863 14.8432 16.1543 14.5009 16.1543Z" fill="#ADBDCC"/>
<path d="M73.8859 76.7517C71.9775 80.7249 69.2921 84.3781 66.1738 87.4895C65.7724 87.89 65.3612 88.2826 64.9422 88.6654C64.6609 88.9225 64.3618 89.2896 63.9526 89.3034C63.5178 89.3191 63.3545 88.9853 63.1873 88.63C62.9099 88.0372 62.6423 87.4365 62.3708 86.8417C61.2986 84.4978 60.2244 82.154 59.1522 79.8101C58.0918 77.4898 56.9861 75.1852 55.969 72.8452C55.5184 71.8127 55.5755 70.8606 55.6444 69.7554C55.7211 68.5481 55.7939 67.3389 55.8706 66.1316C55.5204 66.0139 55.5755 65.3877 56.026 65.3543C58.9122 65.1364 61.7846 64.7614 64.6274 64.2196C66.0046 63.9566 67.3719 63.6543 68.7314 63.3186C69.4318 63.1439 70.1302 62.9594 70.8247 62.765C71.1965 62.661 71.6215 62.4941 71.9795 62.716C72.3986 62.9751 72.3946 63.6798 72.4812 64.1078C72.6032 64.7124 72.7252 65.317 72.8471 65.9236C73.1009 67.176 73.3508 68.4304 73.6046 69.6828C73.8662 70.9745 74.1613 72.2642 74.3817 73.5618C74.5784 74.7258 74.3935 75.6956 73.8859 76.7536V76.7517Z" fill="#F89A71"/>
<path d="M60.4953 77.1575C60.5563 77.1693 60.6232 77.1752 60.6881 77.185C60.7117 77.185 60.7353 77.189 60.7589 77.1909C60.3123 77.0594 60.2926 77.1006 60.4185 77.1418C60.4441 77.1477 60.4697 77.1536 60.4953 77.1575Z" fill="#DD8566"/>
<path d="M55.6968 71.9688C56.4031 72.4792 57.0838 73.0288 57.8117 73.5098C58.0242 73.6491 58.2426 73.7846 58.4649 73.9083C58.577 73.9691 58.6911 74.028 58.8053 74.0849C59.0728 74.2066 59.0374 74.1949 58.701 74.0457C58.8505 74.1929 59.2715 74.2125 59.4663 74.2753C59.6099 74.3028 59.6768 74.3166 59.6689 74.3185C59.728 74.3244 59.787 74.3342 59.848 74.3382C60.4638 74.3951 61.0835 74.397 61.6993 74.3539C61.8291 74.344 61.957 74.3323 62.0868 74.3185C62.1006 74.3166 62.1124 74.3146 62.1282 74.3126C62.4292 74.2537 62.7282 74.2007 63.0273 74.1301C63.6234 73.9887 64.2116 73.8081 64.7861 73.5981C64.8727 73.5667 65.5258 73.2958 65.3822 73.3645C65.573 73.2781 65.7639 73.1917 65.9527 73.0995C67.0151 72.5871 68.0696 72.0061 69.0435 71.3367C69.1084 71.2915 69.1714 71.2444 69.2343 71.1973C69.2619 71.1757 69.2993 71.1423 69.3543 71.0991C69.5531 70.9146 69.7616 70.7399 69.9544 70.5495C70.1413 70.365 70.3203 70.1746 70.4935 69.9763C70.5781 69.8801 70.6607 69.7819 70.7413 69.6818C70.9243 69.4541 70.9007 69.4836 70.6745 69.7702C71.0168 69.5052 71.2863 68.8809 71.5067 68.5119C71.7683 68.0761 72.0103 67.6324 72.2484 67.1848C72.4569 66.7922 72.6615 66.3996 72.8661 66.007C72.8602 65.9776 72.8543 65.9481 72.8484 65.9187C72.7264 65.3121 72.6045 64.7075 72.4825 64.1029C72.3959 63.6749 72.3999 62.9702 71.9808 62.7111C71.6208 62.4893 71.1978 62.6561 70.8259 62.7602C70.1315 62.9545 69.433 63.139 68.7327 63.3137C67.3732 63.6514 66.0059 63.9517 64.6287 64.2148C61.7858 64.7585 58.9135 65.1315 56.0273 65.3494C55.5768 65.3847 55.5217 66.0109 55.8719 66.1268C55.7952 67.336 55.7224 68.5433 55.6456 69.7505C55.5965 70.5377 55.5551 71.2483 55.6968 71.9648V71.9688Z" fill="#DD8566"/>
<path d="M63.1584 77.1379C63.2646 77.1203 63.3709 77.1065 63.4712 77.1065C63.4751 77.1065 63.4771 77.1065 63.481 77.1065C63.0089 77.0751 63.0049 77.1281 63.1584 77.1379Z" fill="#DD8566"/>
<path d="M56.5165 67.9544C56.3374 67.8818 56.3059 67.6816 56.3728 67.5481C56.365 67.5383 56.3591 67.5265 56.3512 67.5167C56.2332 67.6227 56.1151 67.7307 55.9951 67.8367C56.0502 67.8524 56.1033 67.8877 56.1446 67.9486C56.1584 67.9721 56.1741 67.9957 56.1899 68.0212C56.304 67.9643 56.4496 67.976 56.5302 68.1174C56.5342 68.1252 56.5401 68.1331 56.544 68.1409C56.5401 68.086 56.5578 68.033 56.5873 67.9878C56.5637 67.976 56.5401 67.9643 56.5165 67.9525V67.9544ZM64.2522 79.8112C64.2522 79.8112 64.2345 79.8269 64.2246 79.8367C64.2345 79.8426 64.2424 79.8485 64.2522 79.8544C64.3663 79.7661 64.4843 79.6718 64.5079 79.611C64.5139 79.5953 64.5178 79.5776 64.5237 79.5619C64.4312 79.6502 64.3368 79.7327 64.2542 79.8112H64.2522ZM114.058 97.0408C113.749 92.6161 112.502 88.1993 110.133 84.4243C108.695 82.1315 106.82 80.2077 104.816 78.4057C102.622 76.4328 100.391 74.5012 98.1757 72.5519C98.156 72.5342 98.1344 72.5165 98.1147 72.4969C98.1049 72.4891 98.0931 72.4832 98.0832 72.4753C98.276 72.3222 98.4433 72.1534 98.5043 71.961C98.5062 71.9512 98.5102 71.9433 98.5102 71.9335C98.6144 71.5409 98.2741 71.217 98.0557 70.9265C97.2963 69.9234 96.5388 68.9203 95.7814 67.9191C95.5788 67.6521 95.3958 67.3538 95.0279 67.3557C94.9295 67.3557 94.3806 67.609 93.6252 67.978L93.5976 67.9917C92.7595 68.4118 91.9214 68.8339 91.0853 69.254C90.4636 69.5661 89.8439 69.8763 89.2222 70.1884C88.6142 70.4946 88.1204 70.7773 87.6365 70.1511C87.3177 69.7388 87.1879 69.2167 86.881 68.8025C86.46 68.2332 85.7753 67.5501 84.9982 67.87C84.8979 67.9113 84.8447 67.9917 84.827 68.0781C81.937 67.0907 78.7636 67.232 75.7259 67.2635C75.5882 67.2635 75.4525 67.2654 75.3167 67.2674H75.2774C74.9292 66.8866 74.4845 66.5411 74.1717 66.227L72.6549 64.6938C72.7021 64.4858 72.5958 64.26 72.3598 64.2188C72.3342 64.2149 72.3106 64.2129 72.285 64.2129C72.224 64.2129 72.167 64.2227 72.1119 64.2443C71.5807 64.4524 71.3505 65.6008 71.199 65.9757C70.3471 68.0997 69.4933 70.2237 68.6414 72.3477C67.9548 74.0595 67.4334 76.2051 65.8753 77.3437C65.8084 77.3908 65.7395 77.4398 65.6667 77.4771C65.5979 77.5125 65.5251 77.54 65.4484 77.5537C65.3618 77.5674 65.2752 77.5635 65.1887 77.5439C64.8463 77.4673 64.5079 77.1768 64.2325 77.0139C63.8725 76.8019 63.5105 76.5899 63.1996 76.3131C63.0068 76.1442 62.8357 75.9538 62.6665 75.7615C61.852 74.8369 61.1182 73.8298 60.2722 72.9425C59.8748 72.5264 59.6229 71.8629 59.3239 71.3682C59.0032 70.8362 58.6806 70.3062 58.3796 69.7624C58.0097 69.095 57.6831 68.1743 57.0536 67.6757C56.9414 67.4146 56.7801 67.1692 56.5656 66.9435C56.4633 66.8355 56.2941 66.8493 56.1899 66.9435C54.9622 68.0506 53.7365 69.1539 52.5089 70.2591C52.381 70.3062 52.2531 70.3474 52.1233 70.3886C50.4432 70.9167 48.6292 71.109 47.1045 72.0415C45.8729 72.7953 45.0348 74.032 44.1475 75.1372C43.9528 75.3806 43.6124 75.3669 43.3311 75.359C43.1245 75.3531 42.6956 75.2844 42.5107 75.3531C42.3061 75.4258 42.1054 75.8243 41.9775 75.9951C41.5998 76.5054 41.2476 77.0335 40.923 77.5792C40.5295 77.3417 40.1341 77.1042 39.7426 76.8666C39.4534 76.6919 39.1602 76.5153 38.8396 76.4053C38.4795 76.2758 38.1352 76.3288 37.8244 76.1148C37.5431 75.9185 37.2125 75.8243 36.8879 75.7183C35.9908 75.4258 35.2117 74.9821 34.3795 74.564C34.1552 74.4501 33.6634 74.0968 33.3978 74.1714C33.2561 74.2106 33.2325 74.4423 33.1538 74.5679C32.9158 74.9507 32.6423 75.3139 32.3865 75.6869C31.877 76.4328 31.3674 77.1788 30.8579 77.9267C30.7576 78.0719 30.6592 78.2192 30.5608 78.3664C30.4762 78.4881 30.3936 78.6098 30.3129 78.7315C29.4807 79.9584 28.6544 81.1932 27.838 82.4299C26.7028 84.1495 25.5873 85.8829 24.4993 87.6339C23.0238 90.0092 21.6053 92.4159 20.2695 94.8716C19.0103 97.1841 17.7355 99.5417 16.7498 101.986C15.7858 104.381 15.9156 106.752 16.9328 109.11C17.7551 111.018 19.0713 112.702 20.6826 114.009C24.1255 116.805 28.5561 117.643 32.8076 116.412C37.3443 115.101 40.9486 112.062 44.4958 109.055C44.5686 108.992 44.6414 108.929 44.7161 108.868C44.7968 109.663 44.8676 110.458 44.9266 111.255V111.261C45.208 114.999 45.2532 118.752 45.0584 122.497C44.7869 127.698 44.3915 132.725 44.4485 138.013C44.4505 138.17 44.4545 138.333 44.5253 138.473C44.8578 139.124 52.5404 138.557 53.5437 138.602C57.6438 138.787 61.7379 139.097 65.832 139.372C66.497 139.417 67.1639 139.46 67.8289 139.503C67.9627 139.513 68.0945 139.521 68.2283 139.529C75.4348 139.986 82.6708 140.279 89.8714 139.598C90.1232 139.574 90.3967 139.539 90.5738 139.358C90.743 139.185 90.7764 138.924 90.802 138.685C91.282 134.121 90.5285 130.039 90.4006 125.464C90.2452 119.914 90.1232 114.363 89.9954 108.813C89.9816 108.071 89.9639 107.331 89.9521 106.589C89.9344 105.739 89.9186 104.889 89.9029 104.039C89.8911 103.436 89.8812 102.834 89.8694 102.231C91.8388 104.11 94.0068 105.782 96.3382 107.201C98.2662 108.377 100.377 109.492 102.673 109.663C104.916 109.83 107.159 108.911 109.02 107.726C110.635 106.695 112.073 105.319 112.992 103.627C114.092 101.597 114.22 99.3002 114.062 97.0408H114.058Z" fill="#31A0DF"/>
<path d="M43.5785 79.0739C43.431 79.4783 42.9745 79.8866 42.7719 80.1948C42.3666 80.8171 41.9495 81.4413 41.6564 82.1264C41.5226 82.4366 41.3515 82.8292 41.3475 83.1747C41.3436 83.4789 41.4321 83.7734 41.4065 84.0914C41.2944 85.5185 40.4996 86.7867 39.933 88.0685C39.089 89.9805 38.1958 91.869 37.3223 93.7653C35.5575 97.603 33.8852 101.498 32.8957 105.614C32.8366 105.863 32.451 105.757 32.51 105.508C33.4328 101.672 34.9476 98.0251 36.5766 94.4405C37.4088 92.611 38.2705 90.7972 39.0968 88.9656C39.5179 88.0312 39.9349 87.0909 40.3304 86.1447C40.716 85.2221 41.1646 84.2426 40.9599 83.2395C38.5086 83.155 36.0612 82.3816 33.781 81.5434C32.7697 81.1724 31.8136 80.6777 31.0975 79.8552C30.7945 79.5077 30.5407 79.1288 30.3145 78.7323C30.3951 78.6106 30.4777 78.4889 30.5623 78.3672C30.8122 78.8265 31.0975 79.2643 31.4496 79.651C32.213 80.4932 33.2459 80.9447 34.3004 81.3039C36.4251 82.0263 38.6227 82.7369 40.8813 82.8351C40.897 82.784 40.9363 82.7448 40.9855 82.7232C41.3003 81.9851 41.6505 81.2666 42.0617 80.5756C42.2978 80.181 42.5496 79.7963 42.8172 79.4213C42.9155 79.2839 43.069 79.174 43.1496 79.0248C43.2519 78.8364 43.2401 78.6558 43.5215 78.6459C43.5451 78.6459 43.5687 78.6459 43.5864 78.6616C43.6021 78.6754 43.61 78.697 43.6139 78.7186C43.6375 78.8344 43.6218 78.9522 43.5785 79.07V79.0739Z" fill="#37141B"/>
<path d="M44.9268 111.262C44.97 109.287 44.852 107.318 44.3287 105.4C43.5161 102.43 41.8773 99.778 40.266 97.1829C40.1303 96.965 39.786 97.1652 39.9217 97.3851C41.5153 99.9488 43.1423 102.569 43.945 105.506C44.2637 106.674 44.431 107.862 44.4998 109.055L44.9307 111.262H44.9268Z" fill="#37141B"/>
<path d="M89.951 106.589C88.8768 101.216 88.5344 95.7139 88.9417 90.241C88.9594 89.9858 89.3588 89.9838 89.3411 90.241C88.9987 94.8521 89.1896 99.4829 89.9018 104.039C89.9175 104.889 89.9333 105.739 89.951 106.589Z" fill="#37141B"/>
<path d="M98.0857 72.4778C98.0857 72.4778 98.1054 72.4916 98.1172 72.4994C98.1369 72.5171 98.1585 72.5348 98.1782 72.5544C95.8842 73.7263 93.6689 75.0475 91.5461 76.5119C91.3887 76.6199 91.1782 76.8142 90.952 76.932C92.6715 83.4453 95.7071 89.5563 98.4477 95.6849C98.552 95.9165 98.2077 96.1187 98.1034 95.8851C95.3491 89.7251 92.2937 83.5808 90.5664 77.0321C90.5054 77.0282 90.4444 77.0144 90.3834 76.983C89.9466 76.7553 89.6496 75.9387 89.3997 75.5402C88.5557 74.1994 87.7117 72.8587 86.8697 71.5179C86.732 71.3 87.0782 71.0998 87.214 71.3177L89.4705 74.9042L90.0175 75.7738C90.1709 76.0152 90.2221 76.6316 90.5742 76.6866C90.8733 76.7337 91.3199 76.1821 91.5481 76.027C91.8196 75.8405 92.0931 75.656 92.3685 75.4754C94.3418 74.1719 96.3957 72.9941 98.5126 71.936C98.5126 71.9439 98.5087 71.9537 98.5067 71.9635C98.4457 72.1559 98.2785 72.3267 98.0857 72.4778Z" fill="#37141B"/>
<path d="M66.0561 80.3159C66.062 80.0588 65.6646 80.0588 65.6567 80.3159C65.6292 81.3504 65.6567 82.383 65.7453 83.4155C65.7669 83.6688 66.1663 83.6707 66.1446 83.4155C66.0581 82.383 66.0286 81.3524 66.0561 80.3159Z" fill="#31A0DF"/>
<path d="M68.2277 139.529C68.0939 139.521 67.9621 139.513 67.8283 139.503C67.8283 137.892 67.8283 136.282 67.8263 134.672C67.8204 118.24 67.8126 101.807 67.8047 85.3745C67.8047 85.1174 68.2041 85.1174 68.2041 85.3745C68.206 90.0564 68.208 94.7402 68.21 99.422C68.2159 112.792 68.2198 126.161 68.2277 139.531V139.529Z" fill="#37141B"/>
<path d="M65.9426 130.452C65.2087 130.218 64.4769 130.886 64.8054 131.631C64.8684 131.775 64.9727 131.891 65.0966 131.967C65.1241 132.014 65.1556 132.059 65.195 132.099C65.4507 132.358 65.8796 132.395 66.1964 132.23C66.9637 131.832 66.6882 130.687 65.9445 130.45L65.9426 130.452Z" fill="#37141B"/>
<path d="M74.8402 115.719C74.1988 117.231 73.2997 118.678 72.5226 120.122C71.7179 121.618 70.8838 123.098 70.0771 124.594C69.3138 126.013 68.639 127.474 68.3714 129.072C68.336 129.284 68.0448 129.239 67.9858 129.072C66.829 125.748 65.623 122.443 64.3639 119.155C64.0412 118.314 63.7146 117.472 63.3861 116.634C63.1166 115.945 62.8942 115.299 62.9788 114.553C63.1598 112.949 63.5573 111.346 63.8504 109.759C63.8524 109.742 63.8602 109.724 63.8661 109.708C64.3816 101.703 65.0151 93.7057 65.7686 85.7181C65.7686 85.7122 65.7706 85.7044 65.7725 85.6985C65.6132 85.4747 65.5207 85.19 65.4046 84.9564C65.2079 84.5638 64.9875 84.1869 64.7436 83.8218C64.173 82.9679 63.4825 82.2749 62.729 81.5859C62.4221 81.3052 62.2194 81.0205 62.2489 80.7202C62.2627 80.5573 62.3473 80.3904 62.5185 80.2177C63.1048 79.6288 63.6359 79.0457 64.0766 78.3587C64.2694 78.1997 64.4977 78.0937 64.6964 77.9386C64.718 77.9896 64.72 78.0485 64.6865 78.1094C64.6787 78.1231 64.6688 78.1408 64.659 78.1565C64.777 77.9543 65.0859 77.8797 65.3731 77.8718C65.4479 77.8699 65.5227 77.8718 65.5896 77.8777C65.6682 77.8836 65.7391 77.8954 65.7981 77.9091C66.1798 77.9975 66.5929 78.2566 66.9038 78.4922C67.7084 79.1066 68.5052 79.7681 69.1564 80.5475C69.3532 80.783 69.7761 81.1697 69.8607 81.4642C69.8686 81.4936 69.8745 81.525 69.8745 81.5584C69.8961 81.8372 69.7388 82.2494 69.6797 82.4928C69.4968 83.2329 69.2449 83.9533 69.058 84.6914C68.942 85.1449 68.9203 85.7947 68.4993 86.0224C69.8942 94.8325 71.6491 103.584 73.7581 112.252C74.0808 112.894 74.4054 113.538 74.7241 114.184C74.9976 114.74 75.0881 115.134 74.8382 115.721L74.8402 115.719Z" fill="#FCD403"/>
<path d="M75.7277 67.2676C74.5177 72.452 73.0284 77.5676 71.2656 82.593C71.2184 82.7245 71.0374 82.8011 70.9312 82.6814C70.5869 82.2986 70.2367 81.9236 69.8767 81.5585C68.5566 80.2119 67.1263 78.983 65.5917 77.8778C65.5583 77.8542 65.5248 77.8307 65.4914 77.8052C65.4815 77.7993 65.4383 77.8248 65.3733 77.8719C65.1569 78.0309 64.7143 78.4157 64.6395 78.4687C64.3169 78.6885 64.0099 78.9339 63.7188 79.193C63.1915 79.6661 62.7134 80.1844 62.2511 80.7203C62.198 80.7811 62.1468 80.842 62.0937 80.9028C61.3048 81.8314 60.6359 82.8737 60.2542 84.0359C60.2031 84.1929 59.9768 84.242 59.8902 84.083C57.3818 79.4737 54.7928 74.9097 52.125 70.3908C52.2548 70.3515 52.3827 70.3083 52.5106 70.2632C55.0918 74.6329 57.5943 79.0458 60.026 83.4999C60.4805 82.3417 61.2005 81.3092 62.0249 80.3846C62.4439 79.9115 62.8905 79.4639 63.3489 79.0301C63.5732 78.8181 63.7994 78.61 64.0276 78.4019C64.0454 78.3882 64.0631 78.3705 64.0788 78.3587C64.2716 78.1997 64.4998 78.0937 64.6985 77.9387C64.8598 77.813 65.0094 77.6442 65.1923 77.5441C65.2356 77.5186 65.2809 77.4989 65.3281 77.4832C65.4579 77.44 65.5681 77.4459 65.6704 77.4793C65.8337 77.5323 65.9734 77.6599 66.1327 77.7796C66.723 78.2154 67.2994 78.6709 67.8601 79.144C68.9677 80.0803 70.0164 81.0874 70.9941 82.1592C72.6959 77.2751 74.14 72.3067 75.3184 67.2715C75.4542 67.2715 75.5919 67.2695 75.7277 67.2676Z" fill="#37141B"/>
<path d="M49.3631 58.0041C49.068 58.2201 48.7041 58.3182 48.346 58.3948C46.2566 58.8325 44.6454 58.5813 43.7069 56.3866C42.8019 54.2724 43.7463 51.8657 45.814 50.894C46.658 50.4975 47.7479 50.3385 48.4581 50.9431C48.6509 51.106 48.8005 51.3161 48.9323 51.532C49.733 52.8512 50.9626 56.844 49.3651 58.0061L49.3631 58.0041Z" fill="#EA8E6E"/>
<path d="M79.097 50.4211C79.04 51.7266 78.7783 53.081 77.9579 54.0999C77.1119 55.1481 75.4357 55.6585 74.1294 55.2482C72.6499 54.783 72.4965 52.8847 72.4433 51.5891C72.3705 49.7576 73.3247 47.9634 75.0954 47.3627C76.0889 47.0251 77.2693 46.8288 78.1173 47.4452C78.9888 48.0812 79.1403 49.3101 79.097 50.3878C79.097 50.3995 79.097 50.4113 79.097 50.4231V50.4211Z" fill="#EA8E6E"/>
<path d="M60.6525 39.1595C60.6151 38.8238 60.0819 38.8199 60.1193 39.1595C60.377 41.4798 60.3731 43.8099 60.1114 46.1302C60.0721 46.4698 60.6053 46.4659 60.6446 46.1302C60.9082 43.8099 60.9102 41.4818 60.6525 39.1595Z" fill="#F89A71"/>
<path d="M57.5447 35.9024C56.6102 38.6349 55.8744 41.4283 55.3413 44.2669C55.2783 44.6006 55.7918 44.7439 55.8548 44.4082C56.3879 41.5696 57.1237 38.7762 58.0582 36.0437C58.1684 35.7198 57.6549 35.5804 57.5447 35.9024Z" fill="#F89A71"/>
<path d="M74.064 57.9398C73.2632 60.8589 72.1949 63.5954 71.0716 65.8803C68.9232 70.2402 65.0809 73.3399 60.0051 71.1766C53.5442 68.4185 48.9838 59.7301 47.404 53.2698C46.0819 47.8636 45.5074 41.3463 49.391 36.7979C51.9231 33.8318 55.7142 32.0375 59.5939 31.7549C63.4067 31.4761 67.1781 32.7835 70.1292 35.1804C76.4622 40.3255 76.2891 49.8384 74.0659 57.9418L74.064 57.9398Z" fill="#F9A487"/>
<path d="M61.652 29.5303C60.0781 29.6442 58.5357 30.0171 57.0857 30.6198C54.8409 31.5522 52.3168 29.9543 49.8359 31.1753C47.2331 32.4552 44.5751 34.381 43.0799 36.9054C40.5774 41.1299 42.0451 46.6559 44.827 50.366C46.7353 52.9101 47.5282 52.9494 49.1965 50.5466C49.5624 50.0185 54.4632 44.8832 54.7957 45.3897C55.1754 45.9668 55.018 46.7226 54.9708 47.4116C54.9236 48.1007 55.1301 48.9546 55.801 49.1273C56.1728 49.2235 56.5604 49.0645 56.9047 48.8937C58.5553 48.0732 60.0761 46.9071 61.5261 45.8C61.9294 45.4918 66.3796 42.7828 66.3757 42.8456C66.3344 43.5405 66.293 44.2374 66.2537 44.9323C66.2419 45.1188 66.234 45.3151 66.3206 45.478C66.5488 45.9079 67.2157 45.796 67.6013 45.4977C67.987 45.1993 68.3135 44.7655 68.7936 44.6869C69.7674 44.526 69.8894 45.6272 70.5819 45.853C71.5755 46.1769 71.5204 45.959 72.2876 45.9884C72.6162 46.0022 72.8543 45.217 73.4425 45.2758C74.2314 45.3524 74.3062 46.7324 75.1777 46.7795C75.8781 46.8168 76.1929 45.9197 76.2381 45.2189C76.787 36.8839 70.4521 28.8982 61.6441 29.5303H61.652Z" fill="#121212"/>
<path d="M94.2801 67.6369L93.6269 67.9804L93.5994 67.9941C91.8405 68.8559 88.9839 70.34 88.0218 70.7973C87.9904 70.7227 87.9569 70.6521 87.9176 70.5853C87.6599 70.1515 87.3392 69.7569 87.0559 69.3368C86.8218 68.9894 86.5621 68.6616 86.2768 68.3573C86.2768 68.3573 86.2728 68.3553 86.2709 68.3514C86.1627 68.2356 86.0466 68.1217 85.9286 68.0118C85.9286 68.0118 85.9279 68.0111 85.9266 68.0098C85.6512 67.7527 85.3561 67.5171 85.0393 67.3051C84.3586 66.8457 83.7133 66.6357 82.9283 66.4472C82.0705 66.2392 81.136 66.2745 80.3333 65.8701C79.4874 65.4461 78.9385 64.5981 78.1495 64.0759C76.7724 63.1631 74.9289 63.4006 73.3708 63.9483C73.054 64.0602 72.7019 64.1721 72.3595 64.2212H72.3576C72.2769 64.2349 72.1923 64.2428 72.1136 64.2467H72.1116C71.7437 64.2604 71.4054 64.178 71.1575 63.9051C70.703 63.4065 70.9293 62.5585 71.4329 62.1109C72.1176 61.5043 73.1327 61.3983 73.9275 60.9939C74.7834 60.5581 75.8398 60.191 76.7645 59.9574C76.8707 59.93 76.9671 59.873 77.0616 59.8181C77.4413 59.5943 77.819 59.3705 78.1968 59.1467C78.4781 58.9798 78.7634 58.813 79.0093 58.5951C79.3654 58.281 79.4598 57.8904 79.7234 57.5331C79.9792 57.1876 80.3019 57.0345 80.6461 56.7695C81.6554 55.9901 82.1945 54.8791 81.8935 53.6031C81.5747 52.2564 81.3564 50.8784 81.0908 49.52C80.8783 48.4305 80.7937 47.0701 80.0402 46.1946C79.4972 45.5605 78.6768 45.2523 77.9036 45.0069C76.6819 44.6183 75.289 44.3631 74.3427 43.4247C73.963 43.0459 73.5282 42.4354 73.9098 41.9132C74.2345 41.4735 74.8955 41.4951 75.3775 41.554C76.4596 41.6874 77.5377 41.872 78.6178 42.0329C79.4342 42.1546 80.3078 42.2587 80.9983 42.7534C81.6318 43.2088 81.9466 43.9214 82.2397 44.6202C82.6686 45.639 83.0955 46.6598 83.5225 47.6786C84.4117 49.7987 85.301 51.9208 86.1902 54.0408C87.05 56.0922 87.8723 58.1691 88.9406 60.1243C90.4221 62.8313 92.3048 65.2792 94.2801 67.6427V67.6369Z" fill="#F89A71"/>
<path d="M63.2307 60.9549C63.0182 61.0412 62.7998 61.1963 62.5618 61.1904C62.4496 61.1885 62.066 61.1433 62.0188 61.0707C61.7768 60.6918 61.7965 60.4052 61.8063 59.9616C61.8142 59.5709 61.8279 59.1803 61.8299 58.7877C61.8319 57.9691 61.7709 57.1662 61.5545 56.3751C61.5092 56.2102 61.2515 56.2809 61.2987 56.4458C61.4994 57.1741 61.5623 57.9141 61.5643 58.6679C61.5663 59.3295 61.4502 60.046 61.5407 60.7016C61.6686 61.6243 62.6641 61.4731 63.3015 61.212C63.4569 61.1473 63.39 60.8901 63.2307 60.9568V60.9549Z" fill="#512C35"/>
<path d="M64.7259 66.0627C63.7403 66.1 62.7861 66.2688 61.8477 66.5731C61.6863 66.6261 61.7552 66.8832 61.9185 66.8283C62.8333 66.5318 63.7659 66.365 64.7259 66.3277C64.8971 66.3218 64.8971 66.0548 64.7259 66.0627Z" fill="#512C35"/>
<path d="M83.1389 60.9052C81.6161 60.0022 79.755 60.2103 78.1771 59.4565C78.0237 59.3839 77.8879 59.6116 78.0434 59.6862C79.6212 60.4419 81.4863 60.2358 83.0051 61.1349C83.1526 61.2232 83.2864 60.9936 83.1389 60.9052Z" fill="#512C35"/>
<path d="M83.2691 56.6813C82.8638 55.5938 82.4172 54.522 81.9903 53.4423C81.9273 53.2852 81.6715 53.354 81.7345 53.513C82.1004 54.4376 82.4644 55.3641 82.8303 56.2887C83.0192 56.7677 83.1943 57.1583 83.1648 57.6864C83.1353 58.2184 83.0133 58.7661 82.9385 59.2941C82.9149 59.461 83.1707 59.5336 83.1943 59.3648C83.3202 58.4736 83.5917 57.547 83.2691 56.6793V56.6813Z" fill="#512C35"/>
<path d="M41.0943 77.7029C41.1553 77.5734 41.2222 77.4458 41.293 77.3221C42.497 75.2138 43.6204 73.0721 45.8809 71.8648C46.8685 71.3368 47.9801 71.0875 49.0012 70.6281C50.4964 69.9568 50.9135 68.5414 52.2178 67.7346C52.6369 67.4735 52.9832 67.5069 53.4258 67.3872C54.0967 67.2046 54.7125 66.865 55.3991 66.7079C55.6037 66.6608 55.8162 66.6196 56.007 66.5332C56.0503 66.5136 56.0956 66.492 56.1369 66.4665C57.1875 65.8422 56.9986 64.6291 55.765 64.5054C54.3898 64.368 52.8258 65.4437 51.4978 65.7735C50.5633 66.0052 49.0031 66.3566 48.0509 66.1269C47.0889 65.8952 46.1386 65.379 45.2553 64.9392C43.3941 64.0166 41.5153 62.8054 40.6929 60.8188L40.8444 56.9497C40.9054 55.3675 40.8425 53.6694 41.4425 52.1756C42.0996 50.5482 43.7089 49.3684 44.3326 47.6743C44.6474 46.8204 44.3975 45.9194 43.3843 46.8047C42.8236 47.2955 42.5462 47.9177 41.9383 48.3849C40.6811 49.3527 39.1938 50.1811 38.3203 51.5454C37.553 52.7448 37.5648 54.278 37.4389 55.6462C37.2343 57.8468 37.1812 60.0572 36.9962 62.2597C36.8743 63.7084 36.7523 65.1611 36.5103 66.598C36.229 68.2646 36.0637 70.0216 35.4125 71.5881C35.0072 72.5676 34.5488 73.555 34.0117 74.4934L41.0884 77.7029H41.0943Z" fill="#F89A71"/>
<path d="M41.7616 67.9328C41.4252 67.2182 41.0908 66.5037 40.7543 65.7891C40.4002 65.0353 39.9497 64.2737 39.6821 63.4865C39.4264 62.7327 39.8749 61.8356 40.0362 61.0798C40.1897 60.3574 40.2979 59.6272 40.3746 58.891C40.3923 58.7202 40.1267 58.7222 40.109 58.891C40.0126 59.8156 39.8592 60.7324 39.6369 61.6334C39.4873 62.236 39.1804 62.8662 39.3929 63.4865C39.6369 64.1971 40.0382 64.8842 40.3569 65.5654C40.7484 66.3996 41.1399 67.232 41.5315 68.0663C41.6042 68.2213 41.8344 68.0859 41.7616 67.9328Z" fill="#512C35"/>
<path d="M48.0886 65.7958C47.1462 66.0529 46.1547 66.0058 45.2084 66.2767C44.3171 66.5319 43.4869 66.9363 42.7216 67.4565C42.5819 67.5527 42.7137 67.7824 42.8554 67.6862C43.664 67.1346 44.5453 66.7164 45.4976 66.473C46.373 66.2492 47.2879 66.2885 48.1575 66.051C48.3227 66.0058 48.2519 65.7487 48.0866 65.7958H48.0886Z" fill="#512C35"/>
<path d="M53.8936 67.2363C53.8759 67.1931 53.8779 67.1401 53.9153 67.095C54.3461 66.5787 54.9501 66.5218 55.5718 66.3981C56.162 66.2823 57.1024 65.8877 56.6676 65.0947C56.3823 64.5725 55.4715 64.3742 54.9737 64.6157C54.9049 64.6471 54.8439 64.6216 54.8065 64.5764C54.7553 64.5175 54.7514 64.4272 54.838 64.386C55.621 64.0071 57.1103 64.4763 57.0414 65.5226C56.9785 66.4747 55.9928 66.5689 55.1409 66.775C54.8675 66.8437 54.6078 66.9203 54.3973 67.042L53.8916 67.2363H53.8936Z" fill="#512C35"/>
<path d="M74.1483 60.874C72.9364 61.0173 71.394 61.2764 70.9552 62.6192C70.7939 63.1099 70.8569 63.7185 71.2622 64.0797C71.7127 64.484 72.3324 64.3231 72.8479 64.1621C73.0112 64.1111 72.9403 63.8539 72.777 63.9069C72.1416 64.1071 71.4274 64.2053 71.1953 63.4122C71.0398 62.8763 71.2956 62.364 71.6753 61.9851C72.3127 61.351 73.3004 61.2431 74.1483 61.143C74.3155 61.1233 74.3175 60.8564 74.1483 60.8779V60.874Z" fill="#512C35"/>
<path d="M82.3835 51.821C82.3835 53.8508 81.6202 55.8256 80.4102 57.4412C77.6677 61.1003 72.5781 62.4116 68.36 60.7352C65.5054 59.6005 63.3432 57.0015 62.6664 54.0235C62.4953 53.9627 62.3221 53.9195 62.151 53.8959C61.9365 53.8959 61.7241 53.9234 61.49 53.996C61.1201 54.1099 60.7187 54.2964 60.3115 54.3847C60.4768 54.9108 60.585 55.4565 60.6223 56.0199C60.764 58.1066 60.099 60.1639 58.9383 61.8737C56.3098 65.7389 51.0451 67.2839 46.4887 65.7272C41.7788 64.1155 38.6802 59.0391 39.9117 54.3298C40.4685 52.1959 41.7729 50.4488 43.4865 49.271C45.6348 47.7909 47.738 46.9703 50.4077 47.1764C52.8728 47.3669 55.5563 48.5133 57.5572 50.2918C57.7637 50.4763 57.9624 50.6687 58.1513 50.867C58.228 50.759 58.3303 50.6589 58.4622 50.5686C58.6372 50.1642 58.7376 49.6028 58.7828 49.4634C58.9009 49.1041 59.0445 48.743 59.2275 48.4112C59.5501 47.8301 60.0774 47.2923 60.7817 47.2471C61.9051 47.1745 62.5189 48.2875 62.8199 49.3299C62.8632 49.3888 62.9065 49.4496 62.9497 49.5085C63.6305 47.6162 64.9643 45.9397 66.5717 44.6579C70.3884 41.6093 76.1371 42.526 79.639 45.8789C81.2739 47.4454 82.3816 49.5262 82.3835 51.8249V51.821Z" fill="#37141B"/>
<path d="M78.8085 56.3772C76.6169 59.3041 72.5464 60.3524 69.1723 59.0116C65.6822 57.6257 63.5948 53.5976 64.7713 49.9758C65.3025 48.3366 66.3826 47.0175 67.742 46.1518C70.7954 43.7137 75.3912 44.4459 78.1928 47.1274C79.5011 48.3818 80.3864 50.0445 80.3884 51.8819C80.3884 53.5053 79.7785 55.0836 78.8105 56.3772H78.8085Z" fill="#FCB9A7"/>
<path d="M72.168 45.6471C69.6537 45.0326 66.9898 46.7051 66.4252 49.2276C66.3308 49.6536 66.9938 49.793 67.0902 49.367C67.5761 47.1939 69.872 45.7864 72.0283 46.3125C72.4532 46.4166 72.5929 45.7511 72.168 45.6471Z" fill="#FCFAFA"/>
<path d="M66.3033 53.1221C66.1794 52.4625 66.2364 51.8049 66.4351 51.1669C66.565 50.7508 65.9 50.6133 65.7702 51.0275C65.5341 51.7833 65.5085 52.5528 65.6561 53.3282C65.7367 53.7562 66.384 53.5442 66.3033 53.1201V53.1221Z" fill="#FCFAFA"/>
<path d="M78.9025 50.9526C76.9823 51.7378 75.0228 52.4328 73.0318 53.0177C72.0383 53.3083 71.0349 53.5851 70.0237 53.8167C69.3843 53.962 68.7685 54.1092 68.255 53.6165C68.1193 53.485 68.1291 53.3181 68.2078 53.1925C68.1744 53.1336 68.1606 53.0609 68.1724 52.9805C68.4872 50.8113 71.1589 49.5707 73.0279 48.9759C75.1664 48.2966 77.425 48.811 79.0304 50.3775C79.2212 50.5659 79.1405 50.8545 78.9025 50.9507V50.9526Z" fill="#FCFAFA"/>
<path d="M71.5458 51.8084C71.5635 51.6553 71.5458 51.512 71.5006 51.3805C71.5163 51.1076 71.4376 50.8367 71.2192 50.6286C70.9792 50.399 70.7254 50.344 70.4913 50.4048C70.2926 50.3695 70.0841 50.3931 69.8932 50.4951C69.5883 50.6561 69.3896 50.98 69.3463 51.3177C69.2951 51.4433 69.2656 51.5787 69.2656 51.7181C69.2656 52.3777 69.8657 52.9234 70.511 52.6309C70.5169 52.629 70.5228 52.625 70.5287 52.6231C71.0225 52.6898 71.4868 52.3384 71.5458 51.8104V51.8084Z" fill="#37141B"/>
<path d="M57.6484 61.5342C55.4016 64.8399 50.9022 66.1611 47.0068 64.8282C42.9796 63.4501 40.3315 59.1118 41.384 55.0856C41.8601 53.2619 42.9756 51.7681 44.4394 50.761C47.6915 47.9558 52.9149 48.5703 56.2653 51.399C57.8294 52.7221 58.9508 54.5124 59.0885 56.5304C59.2105 58.3148 58.6419 60.0737 57.6484 61.5342Z" fill="#FCB9A7"/>
<path d="M48.1501 49.9538C45.7066 50.1011 43.5917 51.6676 42.8303 53.9251C42.6906 54.3353 43.332 54.6298 43.4737 54.2136C44.1642 52.1721 46.0155 50.7685 48.2347 50.635C48.6833 50.6075 48.6026 49.9283 48.1521 49.9538H48.1501Z" fill="#FCFAFA"/>
<path d="M54.2571 55.6507C53.3717 56.2377 52.4038 56.7324 51.4201 57.1505C50.3577 57.602 49.2481 57.9534 48.1149 58.2027C46.9128 58.4677 45.6576 58.5403 44.5185 59.0095C44.2215 59.1312 43.9736 58.8014 44.07 58.5442C45.5514 54.469 50.1885 52.5354 54.3515 54.1922C54.5286 54.2628 54.5817 54.414 54.5502 54.5514C55.1443 54.84 54.621 55.4093 54.2571 55.6507Z" fill="#FCFAFA"/>
<path d="M47.7136 56.7435C47.7431 56.4098 47.5956 56.0819 47.3556 55.8483C47.2493 55.6226 47.0624 55.4381 46.8106 55.3654C46.423 55.2535 46.0217 55.4655 45.7758 55.7443C45.7069 55.8209 45.6538 55.9072 45.6085 55.9975C45.5908 56.0231 45.5751 56.0486 45.5613 56.0741C45.4826 56.1742 45.4256 56.2959 45.398 56.4412C45.3115 56.8966 45.5613 57.3422 45.9469 57.513C46.6217 57.9704 47.6448 57.5385 47.7156 56.7435H47.7136Z" fill="#37141B"/>
<path d="M42.53 58.536C42.0775 57.6977 42.1916 56.6338 42.7877 55.8584C43.0376 55.5345 42.5772 55.1399 42.3273 55.4658C41.5463 56.4865 41.44 57.8273 42.0244 58.9148C42.2113 59.2623 42.7149 58.8834 42.528 58.5379L42.53 58.536Z" fill="#FCFAFA"/>
<path d="M43.5336 78.5787C42.8391 78.1429 42.1072 77.8091 41.3203 77.5795C40.3602 77.2988 39.5162 76.8767 38.621 76.4389C36.9271 75.6125 35.2037 74.8508 33.4567 74.1481C33.2973 74.0833 33.2285 74.3404 33.3858 74.4033C35.1919 75.1296 36.9704 75.9207 38.7174 76.7805C39.4375 77.1358 40.1281 77.5108 40.9012 77.7385C41.7905 78.0015 42.6129 78.3136 43.4018 78.8083C43.5474 78.8986 43.6811 78.669 43.5356 78.5787H43.5336Z" fill="#37141B"/>
<path d="M33.0017 76.6294C32.7361 76.6824 32.6417 76.9121 32.6279 77.1515C32.6181 77.1653 32.6122 77.183 32.6082 77.2045C32.563 77.5167 32.8522 77.7012 33.1414 77.6325C33.4227 77.5657 33.645 77.2929 33.6313 77.0004C33.6155 76.6588 33.2929 76.5724 33.0017 76.6313V76.6294ZM33.2338 77.2929C33.1886 77.3321 33.1296 77.3636 33.0706 77.3753C33.0233 77.3851 32.925 77.3812 32.8837 77.3361C32.8896 77.3204 32.8935 77.3027 32.8915 77.2831C32.8876 77.181 32.8758 77.0377 32.9466 76.9513C33.0194 76.861 33.3047 76.8276 33.3539 76.9552C33.3991 77.073 33.3224 77.2163 33.2338 77.2929Z" fill="#37141B"/>
<path d="M95.0589 67.2976C94.4333 67.6569 93.7369 67.8532 93.0758 68.1359C92.4089 68.4205 91.7695 68.7621 91.138 69.1154C89.7844 69.8751 88.4643 70.6957 86.9986 71.2335C86.8392 71.2924 86.9081 71.5496 87.0694 71.4887C88.484 70.9705 89.7667 70.1971 91.073 69.457C91.7636 69.0644 92.464 68.6855 93.1958 68.3734C93.8628 68.0887 94.5632 67.8905 95.1947 67.5254C95.3422 67.4409 95.2085 67.2113 95.0609 67.2957L95.0589 67.2976Z" fill="#37141B"/>
<path d="M95.1416 68.3452C94.937 68.2196 94.6793 68.2686 94.5199 68.4335C94.453 68.408 94.3645 68.4257 94.333 68.5121C94.2366 68.7692 94.3369 69.0892 94.5888 69.2168C94.8327 69.3405 95.1632 69.2639 95.299 69.0185C95.4229 68.7967 95.36 68.4806 95.1396 68.3452H95.1416ZM95.0531 68.9145C94.9704 69.0264 94.7855 69.0421 94.6773 68.9596C94.5888 68.8948 94.5592 68.7888 94.5671 68.6868C94.6143 68.6927 94.6635 68.6789 94.6989 68.6298C94.8721 68.3805 95.2321 68.675 95.0531 68.9145Z" fill="#37141B"/>
<path d="M78.6208 49.7105C78.3414 49.6536 78.0856 49.5476 77.8358 49.4239C78.0109 49.1628 78.186 48.9037 78.363 48.6426C78.4594 48.5013 78.2293 48.3678 78.1329 48.5091C77.9558 48.7722 77.7768 49.0352 77.5997 49.3002C77.1 49.0254 76.6219 48.7035 76.0612 48.5641C76.0612 48.3462 76.132 48.1401 76.2756 47.9693C76.3858 47.8397 76.197 47.6513 76.0868 47.7809C75.9097 47.9909 75.8074 48.2422 75.7956 48.5131C75.7799 48.5111 75.7661 48.5072 75.7504 48.5052C74.5994 48.3815 73.421 48.7388 72.3507 49.1157C72.3153 49.1275 72.2779 49.1412 72.2425 49.155C72.1717 48.9567 72.1304 48.7545 72.1245 48.5425C72.1186 48.3717 71.853 48.3717 71.8589 48.5425C71.8668 48.7859 71.912 49.0195 71.9946 49.2472C70.8968 49.6575 69.8974 50.1679 69.1734 50.961C69.0022 50.8628 68.8291 50.7647 68.658 50.6665C68.5084 50.5821 68.3747 50.8118 68.5242 50.8962L68.9983 51.1671C68.6225 51.6382 68.3353 52.1997 68.1759 52.8906C68.1366 53.0575 68.3943 53.1282 68.4317 52.9613C68.955 50.7195 70.8791 49.8656 72.8898 49.2158C73.9423 48.8762 75.2329 48.5131 76.317 48.9037C77.1059 49.1884 77.7138 49.793 78.5519 49.9677C78.7191 50.003 78.79 49.7459 78.6227 49.7125L78.6208 49.7105Z" fill="#512C35"/>
<path d="M54.3315 54.2374C53.2219 53.4561 51.7995 53.409 50.4203 53.6269C50.4164 53.6151 50.4144 53.6034 50.4085 53.5916C50.2826 53.3756 50.2157 53.144 50.2118 52.8927C50.2098 52.722 49.9423 52.722 49.9462 52.8927C49.9501 53.1695 50.021 53.4306 50.1528 53.6721C49.3953 53.8095 48.6556 54.0215 47.9965 54.2237C47.4457 54.3945 46.9735 54.634 46.5466 54.95C46.5407 54.9402 46.5387 54.9323 46.5308 54.9225C46.3892 54.7655 46.2475 54.6084 46.1059 54.4514C45.9918 54.3238 45.8029 54.5122 45.917 54.6398C46.0587 54.7969 46.2003 54.9539 46.342 55.111C46.1138 55.3014 45.8973 55.5154 45.6927 55.7588C45.4016 56.1023 45.1143 56.4557 44.8428 56.8188C44.8428 56.8188 44.8409 56.8188 44.8389 56.8188C44.5949 56.7481 44.3628 56.6539 44.1385 56.5342C43.987 56.4537 43.8532 56.6814 44.0047 56.7638C44.2192 56.8797 44.4454 56.9739 44.6776 57.0465C44.3608 57.4902 44.0755 57.9554 43.8513 58.4521C43.7804 58.6071 44.0106 58.7426 44.0814 58.5855C44.4808 57.7002 45.073 56.9405 45.6829 56.1887C46.3479 55.3701 47.0384 54.7969 48.0654 54.4789C49.9344 53.8998 52.4664 53.248 54.1977 54.4651C54.3374 54.5633 54.4712 54.3336 54.3315 54.2355V54.2374Z" fill="#512C35"/>
<path opacity="0.22" d="M78.1907 47.1273C77.6988 46.6562 77.1499 46.2459 76.5636 45.9023C77.1991 47.0821 77.508 48.4425 77.567 49.7715C77.6555 51.7345 76.6246 53.9763 75.2553 55.3426C73.8231 56.7717 71.6963 57.6492 69.6719 57.6492C68.4108 57.6492 67.2363 57.337 66.1641 56.7933C66.9549 57.7591 67.98 58.5384 69.1702 59.0115C72.5443 60.3523 76.6148 59.304 78.8064 56.3771C79.7744 55.0854 80.3843 53.5072 80.3843 51.8818C80.3843 50.0424 79.497 48.3797 78.1887 47.1273H78.1907Z" fill="white"/>
<path opacity="0.22" d="M59.0875 56.5301C58.9675 54.7712 58.1019 53.185 56.8447 51.9307C56.6637 52.4469 56.4434 52.9514 56.1837 53.4461C55.5836 55.2835 54.5606 56.8736 53.1126 58.2163C51.7669 59.6611 50.1733 60.6839 48.3319 61.2806C46.8229 62.0717 45.2136 62.4957 43.5039 62.5566C44.4581 63.5636 45.6543 64.3626 47.0078 64.8259C50.9013 66.1588 55.4007 64.8376 57.6494 61.5319C58.6409 60.0733 59.2115 58.3125 59.0895 56.5281L59.0875 56.5301Z" fill="white"/>
<g opacity="0.85">
<path d="M123.547 27.7658C123.531 28.2075 123.515 28.6492 123.503 29.0908C123.478 29.8093 123.456 30.5278 123.431 31.2463C123.417 31.6879 123.403 32.1296 123.387 32.5713C123.356 33.5057 123.328 34.4421 123.299 35.3784C123.285 35.8201 123.271 36.2638 123.257 36.7074C123.218 37.95 123.181 39.1946 123.147 40.4392C123.133 40.8808 123.12 41.3245 123.108 41.7681C123.08 42.6456 123.057 43.5211 123.033 44.3986C123.019 44.8423 123.008 45.2839 122.996 45.7276C122.986 46.0319 122.978 46.3342 122.97 46.6384C122.958 47.0782 122.947 47.5159 122.935 47.9556C122.923 48.3993 122.911 48.8429 122.899 49.2866C122.884 49.8539 122.868 50.4212 122.856 50.9885C122.844 51.444 122.832 51.8974 122.821 52.3528C122.758 54.9441 122.695 57.5333 122.638 60.1226C122.628 60.578 122.618 61.0354 122.608 61.4908C122.551 64.0879 122.5 66.683 122.449 69.2782C122.441 69.7218 122.431 70.1635 122.425 70.6071C122.374 73.324 122.329 76.0408 122.288 78.7557C122.282 79.1974 122.274 79.6411 122.268 80.0847C122.236 82.1773 122.209 84.2699 122.179 86.3625C122.175 86.8042 122.169 87.2478 122.164 87.6895C122.144 89.3718 122.124 91.0542 122.107 92.7365C122.103 93.1782 122.099 93.6218 122.095 94.0655C122.077 95.8754 122.059 97.6853 122.046 99.4952V99.5208C122.042 99.9546 122.04 100.388 122.036 100.82C122.016 103.468 122 106.117 121.988 108.765C121.986 109.208 121.985 109.65 121.983 110.094C121.977 111.584 121.973 113.074 121.969 114.562C121.969 115.003 121.967 115.447 121.967 115.891C121.963 117.801 121.961 119.711 121.961 121.621C121.961 122.062 121.961 122.506 121.961 122.948C121.961 125.335 121.965 127.72 121.973 130.105C121.973 130.549 121.973 130.99 121.977 131.434C121.983 133.275 121.99 135.117 122 136.958C122 137.402 122.004 137.845 122.008 138.287H121.475C121.471 137.845 121.469 137.402 121.467 136.958C121.457 135.115 121.447 133.271 121.442 131.428C121.44 130.986 121.438 130.543 121.438 130.099C121.43 127.708 121.426 125.319 121.424 122.928V121.601C121.424 119.701 121.426 117.799 121.43 115.898C121.43 115.455 121.43 115.013 121.434 114.569C121.436 113.081 121.442 111.595 121.447 110.107C121.447 109.666 121.449 109.222 121.453 108.778C121.465 106.126 121.481 103.474 121.503 100.822C121.504 100.381 121.508 99.9369 121.512 99.4952C121.526 97.6853 121.544 95.8754 121.562 94.0655C121.565 93.6218 121.569 93.1801 121.575 92.7365C121.593 91.0502 121.611 89.3679 121.632 87.6836C121.638 87.2419 121.642 86.7983 121.648 86.3566C121.676 84.2581 121.703 82.1596 121.737 80.0611C121.743 79.6195 121.75 79.1758 121.756 78.7341C121.798 76.033 121.843 73.3318 121.894 70.6307C121.898 70.405 121.902 70.1792 121.906 69.9535C121.91 69.7356 121.914 69.5196 121.918 69.3017C121.965 66.738 122.018 64.1723 122.073 61.6086C122.083 61.1532 122.091 60.6958 122.103 60.2403C122.16 57.6472 122.221 55.056 122.286 52.4647C122.295 52.0113 122.307 51.5559 122.321 51.1004C122.335 50.4997 122.35 49.8971 122.366 49.2964C122.376 48.8547 122.388 48.4111 122.402 47.9674C122.421 47.2215 122.441 46.4755 122.461 45.7276C122.472 45.2859 122.484 44.8423 122.498 44.3986C122.522 43.5172 122.547 42.6358 122.573 41.7524C122.585 41.3108 122.598 40.8671 122.612 40.4235C122.648 39.1907 122.685 37.9579 122.72 36.7251C122.734 36.2834 122.748 35.8398 122.762 35.3981C122.791 34.4421 122.821 33.4861 122.852 32.5301C122.866 32.0884 122.88 31.6467 122.895 31.205C122.917 30.4885 122.943 29.774 122.966 29.0594C122.98 28.6177 122.996 28.1761 123.012 27.7344L123.543 27.7619L123.547 27.7658Z" fill="#191919"/>
<path d="M13.4855 24.8057C13.4737 25.2473 13.4619 25.691 13.4501 26.1346C13.4206 27.1966 13.393 28.2586 13.3655 29.3226C13.3537 29.7643 13.3419 30.2079 13.3301 30.6496C13.3025 31.7332 13.275 32.8188 13.2474 33.9044C13.2356 34.346 13.2258 34.7897 13.214 35.2314C13.1766 36.7056 13.1392 38.1798 13.1058 39.6561C13.094 40.0977 13.0841 40.5414 13.0743 40.985C13.0487 41.9528 13.0271 42.9206 13.0035 43.8884C12.9936 44.33 12.9818 44.7737 12.972 45.2154V45.2272C12.9582 45.7807 12.9445 46.3363 12.9327 46.8899C12.9228 47.3315 12.911 47.7732 12.9012 48.2149C12.8422 50.7119 12.7871 53.2069 12.734 55.7039C12.7241 56.175 12.7123 56.6462 12.7025 57.1173C12.6553 59.3375 12.608 61.5577 12.5608 63.7798L12.5333 65.203C12.4782 67.8316 12.427 70.4581 12.3798 73.0846C12.37 73.5244 12.3621 73.9641 12.3542 74.4038C12.3228 76.0449 12.2913 77.684 12.2618 79.3251C12.2519 79.7668 12.2441 80.2105 12.2382 80.6522C12.1949 83.0353 12.1536 85.4184 12.1123 87.8015C12.1044 88.2452 12.0985 88.6869 12.0906 89.1305C12.0631 90.8619 12.0355 92.5894 12.006 94.3208C12.006 94.47 12.0021 94.6172 12.0001 94.7664C11.9962 95.0609 11.9903 95.3553 11.9863 95.6478C11.9568 97.4872 11.9273 99.3285 11.8978 101.17C11.8899 101.612 11.884 102.055 11.8762 102.499C11.8349 105.163 11.7994 107.828 11.7798 110.494C11.7758 110.938 11.7739 111.38 11.7699 111.823C11.7621 113.27 11.7601 114.715 11.766 116.162C11.766 116.603 11.7699 117.047 11.7719 117.491C11.7817 119.155 11.8034 120.822 11.8368 122.488C11.8467 122.932 11.8545 123.374 11.8663 123.817C11.9096 125.61 11.9706 127.402 12.0493 129.192C12.067 129.636 12.0887 130.078 12.1103 130.521C12.2165 132.679 12.3503 134.834 12.5215 136.985C12.5569 137.427 12.5923 137.871 12.6297 138.314H12.0985C12.0591 137.873 12.0237 137.429 11.9903 136.985C11.8191 134.83 11.6873 132.673 11.5811 130.515C11.5594 130.072 11.5398 129.63 11.5201 129.186C11.4414 127.388 11.3824 125.588 11.341 123.79C11.3312 123.346 11.3214 122.905 11.3115 122.461C11.2801 120.806 11.2604 119.151 11.2505 117.498C11.2505 117.204 11.2486 116.913 11.2466 116.619C11.2466 116.47 11.2466 116.321 11.2466 116.169C11.2407 114.723 11.2407 113.272 11.2466 111.825C11.2466 111.382 11.2466 110.94 11.2486 110.496C11.2565 107.834 11.2761 105.172 11.3056 102.513C11.3096 102.069 11.3155 101.625 11.3214 101.184C11.341 99.3423 11.3686 97.5029 11.3981 95.6616C11.404 95.2199 11.4119 94.7762 11.4197 94.3326C11.4473 92.5933 11.4788 90.8541 11.5122 89.1148C11.5201 88.6712 11.5279 88.2295 11.5378 87.7858C11.583 85.4066 11.6322 83.0255 11.6834 80.6463C11.6932 80.2046 11.7011 79.7609 11.7109 79.3173C11.7463 77.6644 11.7817 76.0115 11.8152 74.3587L11.8427 73.0395C11.884 71.098 11.9254 69.1566 11.9647 67.2152C11.9785 66.4712 11.9962 65.7272 12.01 64.9832C12.0198 64.5062 12.0296 64.0331 12.0395 63.558C12.0847 61.3417 12.1319 59.1255 12.1811 56.9092C12.191 56.4381 12.2008 55.9669 12.2126 55.4939C12.2657 53.0538 12.3208 50.6118 12.3779 48.1717C12.3877 47.73 12.3975 47.2903 12.4093 46.8467C12.4211 46.3009 12.4349 45.7552 12.4487 45.2095C12.4585 44.7678 12.4684 44.3242 12.4802 43.8805C12.5018 42.9226 12.5274 41.9646 12.549 41.0086C12.5589 40.5669 12.5707 40.1233 12.5825 39.6796C12.6179 38.1956 12.6553 36.7095 12.6926 35.2255C12.7025 34.7838 12.7143 34.3401 12.7261 33.8985C12.7536 32.8109 12.7812 31.7215 12.8087 30.6339C12.8205 30.1922 12.8323 29.7486 12.8441 29.3069C12.8717 28.2508 12.8992 27.1947 12.9287 26.1386C12.9386 25.6969 12.9523 25.2532 12.9641 24.8096C13.1412 24.8096 13.3183 24.8096 13.4953 24.8096L13.4855 24.8057Z" fill="#191919"/>
<path d="M130.701 29.4719C128.301 29.3423 125.903 29.2147 123.502 29.091C123.323 29.0812 123.146 29.0734 122.969 29.0635C116.532 28.7338 110.093 28.4334 103.651 28.1586C87.6488 27.4794 71.6383 26.969 55.6258 26.6294C41.5688 26.331 27.5099 26.1661 13.4491 26.1308C13.272 26.1308 13.093 26.1308 12.9159 26.1308C11.5191 26.1268 10.1203 26.1249 8.72343 26.1249C8.69392 25.6812 8.66047 25.2395 8.61719 24.7959C10.0632 24.7959 11.5073 24.7979 12.9513 24.8018C13.1284 24.8018 13.3055 24.8018 13.4825 24.8018C20.451 24.8195 27.4194 24.8666 34.3879 24.949C50.4043 25.1375 66.4188 25.4967 82.4274 26.0267C95.961 26.4743 109.491 27.0455 123.012 27.7365L123.544 27.764C125.928 27.8857 128.313 28.0114 130.697 28.1409C131.551 28.188 131.553 29.515 130.697 29.4699L130.701 29.4719Z" fill="#191919"/>
<path d="M83.7024 35.3142C67.4204 34.9884 51.1383 34.6605 34.8563 34.3347C26.1369 34.16 17.4155 33.9853 8.69605 33.8105C8.66458 34.2522 8.63113 34.6939 8.59375 35.1376C24.5158 35.4575 40.4378 35.7755 56.3598 36.0955C72.6143 36.4214 88.8746 36.8984 105.133 37.0083C114.102 37.0692 123.081 36.9043 132.021 36.1407C132.033 35.697 132.045 35.2534 132.059 34.8097C115.979 36.1878 99.8133 35.6401 83.7024 35.3182V35.3142Z" fill="#191919"/>
<path d="M131.292 31.9213C115.312 30.288 99.2331 30.3312 83.1911 30.4804C67.1353 30.6315 51.1011 30.5864 35.0513 30.0956C26.3122 29.8287 17.575 29.4871 8.83986 29.1436C8.84379 29.5852 8.84379 30.0289 8.83789 30.4706C24.632 31.0929 40.4281 31.7073 56.234 31.884C72.2603 32.0626 88.2866 31.5581 104.311 31.7995C113.32 31.935 122.328 32.3296 131.292 33.2463C132.143 33.3327 132.137 32.0037 131.292 31.9173V31.9213Z" fill="#191919"/>
<path d="M131.282 40.6045C115.234 40.2767 99.1862 39.9449 83.1383 39.6249C67.1474 39.305 51.1506 39.0341 35.1558 39.1695C26.1453 39.2461 17.1347 39.4542 8.12996 39.8546C8.12406 39.8546 8.12012 39.8546 8.11619 39.8546C8.07291 40.2394 8.02766 40.6261 7.98438 41.0109C7.98438 41.0639 7.98831 41.1188 7.99028 41.1718C8.03553 41.1777 8.08078 41.1816 8.13193 41.1797C24.109 40.473 40.1077 40.3689 56.0986 40.5201C72.1131 40.6712 88.1256 41.0501 104.138 41.3779C113.186 41.5625 122.236 41.747 131.284 41.9315C132.142 41.9492 132.14 40.6202 131.284 40.6025L131.282 40.6045Z" fill="#191919"/>
<path d="M131.091 45.6432C128.393 45.6726 125.694 45.7001 122.997 45.7236C122.818 45.7236 122.641 45.7256 122.464 45.7276C116.294 45.7825 110.124 45.8238 103.953 45.8493C87.9892 45.918 72.0259 45.8925 56.0646 45.7688C41.6968 45.6589 27.3329 45.4724 12.9691 45.2074C12.792 45.2074 12.615 45.2015 12.4379 45.1975C10.9939 45.172 9.54783 45.1445 8.10377 45.1171C8.09197 44.6734 8.08016 44.2298 8.06836 43.7881C9.53602 43.8175 11.0017 43.8431 12.4694 43.8705C12.6465 43.8745 12.8235 43.8784 13.0025 43.8803C20.3507 44.0138 27.6989 44.1297 35.049 44.2239C51.0104 44.43 66.9737 44.538 82.937 44.5537C96.1263 44.5655 109.316 44.5124 122.503 44.3947C122.682 44.3947 122.859 44.3927 123.036 44.3888C125.722 44.3652 128.407 44.3377 131.093 44.3083C131.95 44.2985 131.948 45.6275 131.093 45.6373L131.091 45.6432Z" fill="#191919"/>
<path d="M12.9318 46.886C12.922 47.3277 12.9102 47.7693 12.9003 48.211C12.7233 48.1973 12.5462 48.1796 12.3691 48.1639C12.379 47.7222 12.3888 47.2825 12.4006 46.8389C12.5777 46.8546 12.7547 46.8703 12.9318 46.886Z" fill="#191919"/>
<path d="M132.124 48.9785C132.106 49.434 132.094 49.8874 132.085 50.3429C128.998 51.0123 125.913 51.6817 122.826 52.3491C122.647 52.3883 122.47 52.4256 122.293 52.4649C116.088 53.8096 109.883 55.1562 103.676 56.5009L77.9817 62.0701C73.7656 62.9829 69.5535 63.9271 65.3295 64.8026C61.2806 65.6408 57.2062 66.2533 53.0668 66.3554C39.0729 66.7067 25.6042 62.2762 12.7041 57.1114C12.529 57.0407 12.3519 56.9701 12.1768 56.8994C10.8705 56.3733 9.57004 55.8413 8.27354 55.3054C8.27157 54.8264 8.26567 54.3514 8.25977 53.8724C9.57201 54.4162 10.8862 54.954 12.2063 55.4841C12.3814 55.5547 12.5585 55.6254 12.7356 55.6961C19.0292 58.2166 25.4055 60.5428 31.9667 62.2703C39.8008 64.3295 47.9221 65.4936 56.0297 64.8752C60.2615 64.5533 64.4048 63.6523 68.5422 62.7552C72.7819 61.8364 77.0216 60.9177 81.2594 59.9971C94.9484 57.0309 108.637 54.0648 122.324 51.0967C122.504 51.0574 122.681 51.0201 122.858 50.9808C125.946 50.3115 129.033 49.6421 132.122 48.9727L132.124 48.9785Z" fill="#191919"/>
<path d="M130.223 58.3477C114.044 62.2581 97.6808 65.4127 81.204 67.788C72.9391 68.9796 64.6446 69.9748 56.3304 70.7698C52.2029 71.1644 48.0596 71.4844 43.9123 71.3725C40.0071 71.2665 36.1196 70.7993 32.2891 70.0396C23.973 68.3906 15.9756 65.4343 8.29884 61.8792C8.29884 62.3641 8.29884 62.849 8.29688 63.3339C14.9899 66.3982 21.9131 69.0149 29.0881 70.7031C32.8458 71.5865 36.6685 72.2146 40.5186 72.5189C44.6658 72.8467 48.8151 72.725 52.9564 72.3952C61.3118 71.7317 69.6516 70.7129 77.9539 69.5744C86.2858 68.4319 94.5901 67.0911 102.859 65.5521C112.151 63.8246 121.394 61.8459 130.579 59.6257C131.412 59.4254 131.059 58.1436 130.225 58.3458L130.223 58.3477Z" fill="#191919"/>
<path d="M132.272 68.8037C115.641 69.6105 99.0093 70.4154 82.379 71.2222C74.0629 71.6246 65.7487 72.029 57.4326 72.4314C49.2444 72.8279 41.0542 73.301 32.8581 73.515C24.6502 73.729 16.4049 73.6289 8.24618 72.663C8.24224 73.1047 8.23831 73.5464 8.23438 73.9881C23.4993 75.7686 38.9452 74.6575 54.2494 73.9155C70.8797 73.1087 87.5119 72.3038 104.142 71.497C113.519 71.0416 122.897 70.5881 132.274 70.1327C132.329 70.1307 132.382 70.1209 132.429 70.1091C132.443 69.6812 132.457 69.2513 132.47 68.8233C132.409 68.8096 132.345 68.8017 132.272 68.8057V68.8037Z" fill="#191919"/>
<path d="M131.105 79.1562C115.209 78.2945 99.2809 78.2297 83.3668 78.4338C67.4389 78.6399 51.5149 79.1091 35.587 79.2995C26.6768 79.4075 17.7645 79.4252 8.85427 79.2642C7.99649 79.2485 7.99649 80.5775 8.85427 80.5932C24.7802 80.8798 40.7081 80.5932 56.6321 80.2595C72.5521 79.9277 88.4761 79.5567 104.4 79.6902C113.306 79.7648 122.211 80.0003 131.105 80.4832C131.961 80.5303 131.959 79.2014 131.105 79.1543V79.1562Z" fill="#191919"/>
<path d="M84.2314 86.9004C67.8943 87.3323 51.5592 87.8761 35.2161 87.986C26.1741 88.0468 17.13 87.9723 8.09187 87.6758C8.08793 88.1175 8.08597 88.5612 8.08203 89.0029C24.3641 89.5368 40.6579 89.3444 56.9419 88.9577C73.281 88.569 89.6161 87.9899 105.959 87.7681C114.59 87.6503 123.223 87.6366 131.854 87.7975C131.868 87.3559 131.881 86.9122 131.897 86.4705C116.009 86.1741 100.116 86.4803 84.2334 86.9004H84.2314Z" fill="#191919"/>
<path d="M87.0235 93.0763C69.6948 93.2824 52.3681 93.5435 35.0414 93.8576C26.0406 94.0205 17.0418 94.2011 8.04106 94.3955C8.03909 94.8371 8.03712 95.2808 8.03516 95.7225C24.6772 95.3652 41.3213 95.057 57.9653 94.7998C75.292 94.5329 92.6207 94.3209 109.949 94.1619C117.189 94.0951 124.427 94.0421 131.667 93.995C131.679 93.5513 131.691 93.1097 131.705 92.666C116.81 92.7622 101.917 92.8957 87.0235 93.0743V93.0763Z" fill="#191919"/>
<path d="M88.7707 99.8115C71.6703 100.018 54.5698 100.285 37.4694 100.616C27.8115 100.803 18.1556 101.011 8.49969 101.239C8.28131 101.245 8.11998 101.333 8.01374 101.464C8.01178 101.761 8.00784 102.057 8.00391 102.352C8.11014 102.483 8.2754 102.572 8.49969 102.566C25.5982 102.163 42.6967 101.824 59.7971 101.547C76.8976 101.27 93.9981 101.056 111.1 100.907C117.906 100.846 124.711 100.797 131.516 100.758C131.524 100.316 131.532 99.8743 131.542 99.4307C117.284 99.5151 103.028 99.6387 88.7727 99.8095L88.7707 99.8115Z" fill="#191919"/>
<path d="M131.462 108.5C116.14 108.944 100.814 109.317 85.488 109.615C69.1076 109.933 52.7252 110.169 36.3408 110.322C27.1315 110.406 17.9203 110.465 8.709 110.498C7.85319 110.502 7.85122 111.829 8.709 111.827C25.1819 111.768 41.6528 111.627 58.1256 111.399C74.508 111.174 90.8904 110.863 107.269 110.471C115.335 110.277 123.403 110.063 131.47 109.829C131.466 109.387 131.464 108.944 131.462 108.502V108.5Z" fill="#191919"/>
<path d="M129.692 114.448C113.996 114.676 98.3 114.902 82.6042 115.129C66.9085 115.357 51.2127 115.583 35.517 115.811C26.65 115.938 17.7811 116.068 8.91408 116.195C8.05827 116.207 8.0563 117.536 8.91408 117.524C24.6098 117.297 40.3056 117.071 56.0013 116.843C71.6971 116.616 87.3929 116.39 103.089 116.162C111.956 116.034 120.825 115.905 129.692 115.777C130.547 115.766 130.549 114.437 129.692 114.448Z" fill="#191919"/>
<path d="M130.91 122.031C115.067 121.097 99.1859 121.283 83.3288 121.727C67.4579 122.171 51.591 122.869 35.7123 122.946C26.7725 122.989 17.8327 122.83 8.90675 122.326C8.05093 122.277 8.0529 123.606 8.90675 123.655C24.754 124.552 40.6347 124.344 56.4918 123.892C72.3626 123.441 88.2276 122.748 104.106 122.691C113.044 122.659 121.986 122.834 130.91 123.36C131.766 123.411 131.762 122.082 130.91 122.031Z" fill="#191919"/>
<path d="M130.289 130.17C114.335 130.037 98.3816 129.903 82.4281 129.77C66.4746 129.636 50.5211 129.503 34.5676 129.369C25.6161 129.295 16.6645 129.22 7.71291 129.146C6.8571 129.138 6.85513 130.467 7.71291 130.475L55.5733 130.875C71.5268 131.008 87.4803 131.142 103.434 131.275C112.385 131.35 121.337 131.425 130.289 131.499C131.144 131.507 131.146 130.178 130.289 130.17Z" fill="#191919"/>
<path d="M130.691 138.279C127.797 138.279 124.905 138.279 122.011 138.281H121.478C115.601 138.281 109.725 138.283 103.848 138.285L55.8796 138.295C41.4606 138.299 27.0437 138.301 12.6267 138.305H12.0955C10.7007 138.305 9.30383 138.305 7.90896 138.305C7.05118 138.305 7.05118 136.976 7.90896 136.976C9.26842 136.976 10.6259 136.976 11.9854 136.976H12.5166C19.9277 136.976 27.3388 136.974 34.7499 136.97C50.7388 136.968 66.7297 136.964 82.7205 136.96L121.47 136.952H122.003L130.691 136.95C131.549 136.95 131.549 138.279 130.691 138.279Z" fill="#191919"/>
</g>
</g>
</g>
<defs>
<clipPath id="clip0_305_38696">
<rect width="144.884" height="140" fill="white" transform="translate(0.0585938)"/>
</clipPath>
</defs>
</svg>
