<svg width="147" height="32" viewBox="0 0 147 32" fill="none" xmlns="http://www.w3.org/2000/svg">
<g clip-path="url(#clip0_700_24629)">
<g clip-path="url(#clip1_700_24629)">
<path fill-rule="evenodd" clip-rule="evenodd" d="M142.89 11.416L142.665 11.9974C142.443 12.5806 142.287 12.918 142.072 13.3889C141.938 13.679 141.783 14.0205 141.571 14.5139L137.018 25.7741C136.223 27.7753 134.635 28.9257 132.674 28.9257C132 28.9257 131.204 28.7201 130.751 28.5346L130.341 28.3591L130.524 27.955C131.157 26.6037 131.563 26.1693 132.888 26.0606C133.384 26.0228 133.935 25.4379 134.315 24.522L134.507 24.057L130.39 14.5069C130.17 14.0005 130.002 13.6022 129.838 13.2057C129.678 12.8353 129.526 12.4701 129.324 12.0146L129.066 11.416H131.101C132.272 11.416 132.791 11.777 133.242 12.918C133.242 12.918 135.506 18.5324 135.672 18.946C135.842 19.3555 136.041 20.3428 136.041 20.3428L136.146 20.3351C136.146 20.3351 136.292 19.4583 136.467 18.946C136.643 18.4325 138.662 12.9327 138.662 12.9327C139.088 11.8089 139.664 11.416 140.861 11.416H142.89Z" fill="#ED1651"/>
<path fill-rule="evenodd" clip-rule="evenodd" d="M114.075 13.9618V13.0583C114.075 12.2606 113.596 11.4151 112.078 11.4151H110.949V24.5329H114.158V19.0928C114.158 18.2851 114.243 17.6021 114.423 17.0083C114.908 15.443 116.097 14.4279 117.454 14.4279C117.783 14.4279 118.058 14.49 118.058 14.49L118.587 14.6118V11.3756L118.225 11.3218C118.209 11.3218 117.871 11.2656 117.526 11.2656C116.147 11.2656 114.455 12.4497 114.075 13.9618Z" fill="#ED1651"/>
<path fill-rule="evenodd" clip-rule="evenodd" d="M123.384 13.9618V13.0583C123.384 12.2606 122.909 11.4151 121.389 11.4151H120.258V24.5329H123.463V19.0928C123.463 18.2851 123.551 17.6021 123.734 17.0083C124.217 15.443 125.404 14.4279 126.759 14.4279C127.095 14.4279 127.367 14.49 127.367 14.49L127.895 14.6118V11.3756L127.536 11.3218C127.516 11.3218 127.18 11.2656 126.839 11.2656C125.458 11.2656 123.765 12.4497 123.384 13.9618Z" fill="#ED1651"/>
<path fill-rule="evenodd" clip-rule="evenodd" d="M105.744 21.5441L105.696 21.563C105.015 21.8762 104.189 22.2579 103.209 22.2579C101.537 22.2579 99.3755 21.2292 99.1852 18.9792H108.423C108.479 18.5478 108.51 17.9198 108.51 17.5841C108.51 13.893 106.061 11.4102 102.439 11.4102C98.563 11.4102 95.8555 14.2286 95.8555 18.2637C95.8555 22.236 99.067 25.1159 103.086 25.1159C106.351 25.1159 108.181 23.1277 108.263 23.0478L108.479 22.8322L108.345 22.5563C108.046 21.9477 107.615 21.241 106.775 21.241C106.409 21.241 106.073 21.3946 105.744 21.5441ZM105.469 16.5346H99.2155C99.4261 15.1679 100.817 13.9147 102.66 13.9147C104.029 13.9147 105.469 14.7567 105.469 16.5346Z" fill="#ED1651"/>
<path fill-rule="evenodd" clip-rule="evenodd" d="M84.4321 12.9235H84.3423C84.3423 12.9235 84.4321 12.208 84.4321 11.4718V8.9943C84.4321 7.65659 83.785 7.00781 82.4529 7.00781H81.2266V18.5042C81.3871 22.6811 83.9951 25.2714 88.0243 25.2714C91.7475 25.2714 94.551 22.3272 94.551 18.4204C94.551 14.5136 91.8266 11.5682 88.2145 11.5682C86.4048 11.5682 85.1612 12.3032 84.4321 12.9235ZM84.304 18.4618C84.304 15.5299 86.1886 14.4847 87.7309 14.4847C89.4981 14.4847 91.3199 15.9683 91.3199 18.441C91.3199 20.9198 89.4698 22.3987 87.6854 22.3987C85.6224 22.3987 84.304 20.4016 84.304 18.4618Z" fill="#ED1651"/>
<path fill-rule="evenodd" clip-rule="evenodd" d="M75.1139 17.9738L77.3316 14.6566C77.7402 14.0528 78.0513 13.6214 78.392 13.1588C78.6312 12.8303 78.8798 12.4982 79.152 12.0958L79.6208 11.4258H77.2034C75.8448 11.4258 75.337 11.7183 74.6067 12.923C74.6067 12.923 73.6319 14.5367 73.4919 14.7636C73.3673 14.9852 73.0308 15.7349 73.0213 15.755H72.9345C72.9345 15.755 72.6293 15.0632 72.4468 14.7636C72.2714 14.464 71.3267 12.9165 71.3267 12.9165C70.5538 11.7183 70.0461 11.4258 68.7312 11.4258H66.3203L66.811 12.0994C67.3955 12.923 67.7297 13.4069 68.2298 14.1343L70.8148 17.9738L68.6201 21.5899C68.2157 22.1902 67.9056 22.6304 67.565 23.0806C67.3224 23.4186 67.0744 23.7465 66.7962 24.1418L66.3304 24.8154H68.7488C70.1098 24.8154 70.6188 24.5265 71.3462 23.3223C71.3462 23.3223 72.321 21.7116 72.4575 21.4847C72.5867 21.259 72.9256 20.5086 72.9345 20.495H73.0213C73.0213 20.495 73.3207 21.1852 73.5014 21.4847C73.6856 21.7789 74.6309 23.3324 74.6309 23.3324C75.3984 24.5265 75.911 24.8154 77.2188 24.8154H79.6302L79.1408 24.1418C78.5609 23.3223 78.2243 22.8384 77.7213 22.1051L75.1139 17.9738Z" fill="#ED1651"/>
<path fill-rule="evenodd" clip-rule="evenodd" d="M52.3867 18.394C52.3867 22.3144 55.3993 25.2717 59.4018 25.2717C63.349 25.2717 66.4448 22.25 66.4448 18.394C66.4448 14.5049 63.4193 11.5684 59.4018 11.5684C55.3993 11.5684 52.3867 14.5049 52.3867 18.394ZM55.6425 18.394C55.6425 16.1535 57.2561 14.4595 59.4018 14.4595C61.5605 14.4595 63.1807 16.1535 63.1807 18.394C63.1807 20.6629 61.5605 22.3795 59.4018 22.3795C57.2561 22.3795 55.6425 20.6629 55.6425 18.394Z" fill="#ED1651"/>
<path fill-rule="evenodd" clip-rule="evenodd" d="M41.0796 12.9235H40.9881C40.9881 12.9235 41.0796 12.208 41.0796 11.4718V8.9943C41.0796 7.65659 40.4319 7.00781 39.0986 7.00781H37.8711V18.5042C38.0323 22.6811 40.6356 25.2714 44.669 25.2714C48.3929 25.2714 51.1952 22.3272 51.1952 18.4204C51.1952 14.5136 48.4738 11.5682 44.8626 11.5682C43.0499 11.5682 41.8052 12.3032 41.0796 12.9235ZM40.9544 18.4618C40.9544 15.5299 42.8355 14.4847 44.3808 14.4847C46.1421 14.4847 47.969 15.9683 47.969 18.441C47.969 20.9198 46.1126 22.3987 44.3306 22.3987C42.2675 22.3987 40.9544 20.4016 40.9544 18.4618Z" fill="#ED1651"/>
<path fill-rule="evenodd" clip-rule="evenodd" d="M19.7347 25.4708C21.1329 26.8688 23.3943 26.8688 24.7919 25.4708C26.1889 24.0722 26.1889 21.8086 24.7919 20.4124C23.3943 19.0162 21.1329 19.0162 19.7347 20.4124C18.3436 21.8086 18.3436 24.0722 19.7347 25.4708Z" fill="#ED1651"/>
<path fill-rule="evenodd" clip-rule="evenodd" d="M25.7462 19.4608C27.139 20.86 29.4046 20.86 30.8022 19.4608C32.195 18.0629 32.195 15.7981 30.8022 14.4013C29.4046 13.0069 27.139 13.0069 25.7462 14.4013C24.345 15.7981 24.345 18.0629 25.7462 19.4608Z" fill="#ED1651"/>
<path fill-rule="evenodd" clip-rule="evenodd" d="M13.7239 19.4608C15.125 20.86 17.384 20.86 18.7875 19.4608C20.181 18.0629 20.181 15.7981 18.7875 14.4013C17.384 13.0069 15.125 13.0069 13.7239 14.4013C12.3368 15.7981 12.3368 18.0629 13.7239 19.4608Z" fill="#ED1651"/>
<path fill-rule="evenodd" clip-rule="evenodd" d="M7.72265 13.4506C9.12201 14.8457 11.3864 14.8457 12.7827 13.4506C14.1756 12.0532 14.1756 9.78843 12.7827 8.39162C11.3864 6.99186 9.12201 6.99186 7.72265 8.39162C6.32683 9.78843 6.32683 12.0532 7.72265 13.4506Z" fill="#ED1651"/>
<path fill-rule="evenodd" clip-rule="evenodd" d="M19.7347 13.4506C21.1329 14.8457 23.3943 14.8457 24.7919 13.4506C26.1889 12.0532 26.1889 9.78843 24.7919 8.39162C23.3943 6.99186 21.1329 6.99186 19.7347 8.39162C18.3436 9.78843 18.3436 12.0532 19.7347 13.4506Z" fill="#ED1651"/>
<path fill-rule="evenodd" clip-rule="evenodd" d="M18.7875 2.38115C20.181 3.77795 20.181 6.04333 18.7875 7.43778C17.384 8.83636 15.125 8.83636 13.7239 7.43778C12.3368 6.04333 12.3368 3.77795 13.7239 2.38115C15.125 0.98493 17.384 0.98493 18.7875 2.38115Z" fill="#A6CE39"/>
<path fill-rule="evenodd" clip-rule="evenodd" d="M18.781 26.4213C20.181 27.8187 20.181 30.0829 18.781 31.4814C17.384 32.88 15.125 32.88 13.7239 31.4814C12.3368 30.0829 12.3368 27.8187 13.7239 26.4213C15.125 25.0262 17.384 25.0262 18.781 26.4213Z" fill="#ED1651"/>
<path fill-rule="evenodd" clip-rule="evenodd" d="M7.72265 25.4708C9.12201 26.8688 11.3864 26.8688 12.7827 25.4708C14.1756 24.0764 14.1756 21.8086 12.7827 20.4124C11.3864 19.0162 9.12201 19.0162 7.72265 20.4124C6.32683 21.8086 6.32683 24.0764 7.72265 25.4708Z" fill="#ED1651"/>
<path fill-rule="evenodd" clip-rule="evenodd" d="M1.71793 19.4608C3.11493 20.86 5.37575 20.86 6.77511 19.4608C8.16975 18.0629 8.16975 15.801 6.77511 14.4013C5.37575 13.0069 3.11493 13.0069 1.71793 14.4013C0.317981 15.801 0.317981 18.0629 1.71793 19.4608Z" fill="#ED1651"/>
</g>
</g>
<defs>
<clipPath id="clip0_700_24629">
<rect width="146" height="32" fill="white" transform="translate(0.667969)"/>
</clipPath>
<clipPath id="clip1_700_24629">
<rect width="147.333" height="32" fill="white" transform="translate(0.667969 1.33398)"/>
</clipPath>
</defs>
</svg>
