<svg width="89" height="32" viewBox="0 0 89 32" fill="none" xmlns="http://www.w3.org/2000/svg">
<path fill-rule="evenodd" clip-rule="evenodd" d="M17.7193 20.4599H14.9612C10.659 20.4599 13.7845 11.5236 17.4066 11.5236H21.7643C22.4628 11.5236 23.6946 11.6492 24.3015 9.95922L25.2392 7.33398H19.2636C16.0276 7.33398 13.5087 8.44867 11.6885 10.3189C8.54435 13.5194 7.47815 18.5181 8.23187 20.9093C8.94895 23.1211 10.8979 24.5773 13.9499 24.6133L16.3218 24.6314H19.2453L19.9624 22.5277C20.4955 21.0352 19.3003 20.4599 17.7193 20.4599ZM51.2923 16.7559L52.1933 13.8969H42.5774C40.9778 13.8969 40.2607 14.3285 39.9849 15.2275L39.0838 18.0865H48.7C50.2996 18.0865 51.0167 17.655 51.2923 16.7559ZM37.6499 21.7905L36.7489 24.6492H46.3648C47.9461 24.6492 48.6815 24.2179 48.9573 23.3189L49.8584 20.4599H40.2422C38.6612 20.4599 37.9441 20.8915 37.6499 21.7905ZM53.5356 10.2108L54.4364 7.35208H44.8205C43.2209 7.35208 42.5038 7.78337 42.228 8.68241L41.3269 11.5414H50.9431C52.5244 11.5414 53.2412 11.1098 53.5356 10.2108ZM39.0103 10.7864C38.606 8.1252 37.1535 7.35208 33.6233 7.35208H27.1882L23.4374 18.0865H25.8092C27.2248 18.0865 27.9419 18.1044 28.6959 16.1266L30.2585 11.5236H32.6487C34.6898 11.5236 34.2299 14.0229 33.2004 16.45C32.281 18.5899 30.6814 20.4777 28.7508 20.4777H24.7611C23.1615 20.4777 22.4261 20.9093 22.132 21.8083L21.139 24.6673H24.0623L26.9306 24.6492C29.4679 24.6314 31.5456 24.4517 33.9727 22.3118C36.5466 20.0284 39.5253 14.1666 39.0103 10.7864ZM71.3333 7.33398H65.7624L60.5222 12.782C59.9155 13.4114 59.2903 14.0407 58.6837 14.7779H58.6285L61.2393 7.33398H56.6978L50.5754 24.6492H55.1166L57.0655 19.2012L59.088 17.529L60.6878 22.4558C61.184 23.9842 61.6991 24.6492 62.8022 24.6492H66.2771L62.7103 14.9757L71.3333 7.33398Z" fill="#00B33C"/>
</svg>
