<svg width="90" height="32" viewBox="0 0 90 32" fill="none" xmlns="http://www.w3.org/2000/svg">
<g clip-path="url(#clip0_700_12072)">
<g clip-path="url(#clip1_700_12072)">
<path d="M28.9627 21.0636C28.0879 21.0626 27.2492 20.7119 26.6306 20.0885C26.012 19.4651 25.6641 18.6199 25.6631 17.7383H20.4648C20.4674 20.0088 21.3635 22.1856 22.9566 23.7911C24.5498 25.3966 26.7097 26.2997 28.9627 26.3023V21.0636Z" fill="#0F68AA"/>
<path d="M73.9717 2.00195H68.7734V7.02642H73.9717V2.00195Z" fill="#00AEEF"/>
<path d="M25.6637 17.7378C25.6637 15.4665 24.7684 13.2882 23.1747 11.6822C21.581 10.0761 19.4196 9.17382 17.1658 9.17383C14.912 9.17384 12.7506 10.0761 11.1569 11.6822C9.56325 13.2883 8.66796 15.4666 8.66797 17.7379H13.8662C13.8662 17.3012 13.9516 16.8688 14.1174 16.4654C14.2832 16.0619 14.5263 15.6954 14.8327 15.3866C15.1391 15.0778 15.5028 14.8328 15.9031 14.6657C16.3035 14.4986 16.7325 14.4126 17.1659 14.4126C17.5992 14.4126 18.0282 14.4986 18.4286 14.6657C18.8289 14.8328 19.1926 15.0778 19.499 15.3866C19.8054 15.6954 20.0485 16.0619 20.2143 16.4654C20.3801 16.8688 20.4655 17.3012 20.4655 17.7379L25.6637 17.7378Z" fill="url(#paint0_linear_700_12072)"/>
<path d="M41.0595 9.17578V9.84786C39.7676 9.29924 38.3611 9.08123 36.9654 9.21326C35.5697 9.34529 34.228 9.82326 33.06 10.6046C31.892 11.3859 30.934 12.4463 30.2713 13.6912C29.6085 14.9362 29.2617 16.327 29.2617 17.7398C29.2617 19.1526 29.6085 20.5434 30.2713 21.7884C30.934 23.0333 31.892 24.0937 33.06 24.875C34.228 25.6564 35.5697 26.1343 36.9654 26.2664C38.3611 26.3984 39.7676 26.1804 41.0595 25.6318V26.3038H46.2577V9.17578H41.0595ZM37.7598 21.0651C37.1072 21.0651 36.4693 20.87 35.9267 20.5046C35.384 20.1393 34.9611 19.6199 34.7114 19.0123C34.4616 18.4046 34.3963 17.736 34.5236 17.091C34.651 16.4459 34.9652 15.8534 35.4267 15.3884C35.8882 14.9233 36.4761 14.6066 37.1162 14.4783C37.7563 14.35 38.4197 14.4159 39.0226 14.6676C39.6256 14.9193 40.1409 15.3455 40.5034 15.8924C40.866 16.4392 41.0595 17.0822 41.0595 17.7399C41.0585 18.6215 40.7105 19.4667 40.0919 20.09C39.4733 20.7134 38.6346 21.0641 37.7598 21.0651Z" fill="#00AEEF"/>
<path d="M55.4951 2.00195H50.2969V26.3022H55.4951V2.00195Z" fill="#00AEEF"/>
<path d="M64.7334 2H59.5352V26.3028H64.7334V2Z" fill="#00AEEF"/>
<path d="M73.9717 9.17578H68.7734V26.3038H73.9717V9.17578Z" fill="#00AEEF"/>
<path d="M20.4655 2.00195V17.7382C20.4646 18.6185 20.1174 19.4625 19.5 20.0852C18.8827 20.7079 18.0454 21.0585 17.1719 21.06C16.2985 21.0616 15.46 20.714 14.8404 20.0935C14.2209 19.473 13.8707 18.6302 13.8668 17.7499C13.868 17.7451 13.869 17.7403 13.8697 17.7354C13.8697 17.6946 13.8537 17.6555 13.825 17.6267C13.7964 17.5978 13.7576 17.5816 13.7172 17.5816H8.82051C8.80047 17.5816 8.78064 17.5856 8.76213 17.5933C8.74362 17.6011 8.72681 17.6124 8.71264 17.6267C8.69848 17.6409 8.68724 17.6579 8.67958 17.6765C8.67191 17.6952 8.66797 17.7152 8.66797 17.7354C8.66797 17.7364 8.66849 17.7372 8.66854 17.7382H8.66797C8.66668 18.8637 8.88552 19.9784 9.312 21.0186C9.73847 22.0588 10.3642 23.004 11.1534 23.8003C11.9427 24.5966 12.8799 25.2283 13.9116 25.6593C14.9432 26.0903 16.049 26.3122 17.1658 26.3122C18.2826 26.3122 19.3885 26.0903 20.4201 25.6593C21.4518 25.2283 22.389 24.5966 23.1782 23.8003C23.9674 23.004 24.5932 22.0588 25.0197 21.0186C25.4461 19.9784 25.665 18.8637 25.6637 17.7382V2.00195H20.4655Z" fill="#00AEEF"/>
</g>
</g>
<defs>
<linearGradient id="paint0_linear_700_12072" x1="13.7309" y1="13.4632" x2="23.9" y2="13.5549" gradientUnits="userSpaceOnUse">
<stop offset="0.06" stop-color="#00AEEF"/>
<stop offset="0.8" stop-color="#0F68AA"/>
</linearGradient>
<clipPath id="clip0_700_12072">
<rect width="88.6667" height="32" fill="white" transform="translate(0.667969)"/>
</clipPath>
<clipPath id="clip1_700_12072">
<rect width="65.3333" height="37.3333" fill="white" transform="translate(8.66797 2)"/>
</clipPath>
</defs>
</svg>
