<svg width="24" height="24" viewBox="0 0 24 24" fill="none" xmlns="http://www.w3.org/2000/svg">
<path d="M12 2C6.486 2 2 6.486 2 12C2 17.514 6.486 22 12 22C17.514 22 22 17.514 22 12C22 6.486 17.514 2 12 2ZM12.71 17.71C12.52 17.89 12.26 18 12 18C11.74 18 11.48 17.89 11.29 17.71C11.11 17.52 11 17.26 11 17C11 16.74 11.11 16.48 11.29 16.29C11.67 15.92 12.33 15.92 12.71 16.29C12.89 16.48 13 16.74 13 17C13 17.27 12.89 17.52 12.71 17.71ZM13 13C13 13.2652 12.8946 13.5196 12.7071 13.7071C12.5196 13.8946 12.2652 14 12 14C11.7348 14 11.4804 13.8946 11.2929 13.7071C11.1054 13.5196 11 13.2652 11 13V7C11 6.73478 11.1054 6.48043 11.2929 6.29289C11.4804 6.10536 11.7348 6 12 6C12.2652 6 12.5196 6.10536 12.7071 6.29289C12.8946 6.48043 13 6.73478 13 7V13Z" fill="#F02E2E"/>
</svg>
