<svg width="100" height="29" viewBox="0 0 100 29" fill="none" xmlns="http://www.w3.org/2000/svg">
<path d="M89.7211 0.015625H70.4688C71.5902 6.37077 77.7585 12.3521 84.4874 12.3521H99.8146C100.001 11.7913 100.001 10.8567 100.001 10.296C100.001 4.68852 95.3285 0.015625 89.7211 0.015625Z" fill="url(#paint0_linear_305_42862)"/>
<path d="M72.1484 13.4727V28.9867H81.4942V20.7624H89.7185C94.2045 20.7624 98.1298 17.5848 99.4382 13.4727H72.1484Z" fill="#4FAD50"/>
<path d="M39.25 0.015625V28.8007H47.4743C47.4743 28.8007 49.5304 28.8007 50.6519 26.7446C56.2594 15.7166 57.9416 12.3521 57.9416 12.3521H59.0631V28.8007H68.4089V0.015625H60.1846C60.1846 0.015625 58.1285 0.202552 57.007 2.07171C52.3341 11.6044 49.7173 16.4642 49.7173 16.4642H48.5958V0.015625H39.25Z" fill="#4FAD50"/>
<path d="M-0.00390625 28.9882V0.203125H9.34189C9.34189 0.203125 11.9587 0.203119 13.4541 4.31527C17.1924 15.1564 17.5662 16.6517 17.5662 16.6517C17.5662 16.6517 18.3139 14.0349 21.6783 4.31527C23.1737 0.203119 25.7905 0.203125 25.7905 0.203125H35.1363V28.9882H25.7905V13.4742H24.669L19.4354 28.9882H15.3232L10.0896 13.4742H8.96809V28.9882H-0.00390625Z" fill="#4FAD50"/>
<defs>
<linearGradient id="paint0_linear_305_42862" x1="70.4355" y1="6.27227" x2="99.9353" y2="6.27227" gradientUnits="userSpaceOnUse">
<stop stop-color="#27B1E6"/>
<stop offset="1" stop-color="#148ACA"/>
</linearGradient>
</defs>
</svg>
