<svg width="24" height="24" viewBox="0 0 24 24" fill="none" xmlns="http://www.w3.org/2000/svg">
<g clip-path="url(#clip0_721_46359)">
<path d="M23.7888 19.9703L13.2593 2.50801C13.1284 2.29103 12.9437 2.11154 12.7231 1.98694C12.5024 1.86235 12.2533 1.79688 12 1.79688C11.7466 1.79688 11.4975 1.86235 11.2768 1.98694C11.0562 2.11154 10.8715 2.29103 10.7407 2.50801L0.211223 19.9703C0.0767083 20.1934 0.00386641 20.4482 0.000149719 20.7087C-0.00356697 20.9691 0.0619749 21.2259 0.19007 21.4527C0.318166 21.6795 0.504216 21.8683 0.729189 21.9996C0.954161 22.1309 1.20998 22.2001 1.47047 22.2001H22.5295C22.79 22.2001 23.0458 22.1309 23.2707 21.9996C23.4957 21.8682 23.6817 21.6795 23.8098 21.4527C23.9379 21.2259 24.0035 20.9691 23.9998 20.7087C23.9961 20.4482 23.9233 20.1934 23.7888 19.9703ZM12.0078 7.83723C12.6126 7.83723 13.1243 8.17839 13.1243 8.78308C13.1243 10.6282 12.9072 13.2797 12.9072 15.1249C12.9072 15.6056 12.38 15.8071 12.0078 15.8071C11.5117 15.8071 11.093 15.6055 11.093 15.1249C11.093 13.2797 10.876 10.6282 10.876 8.78308C10.876 8.17839 11.3721 7.83723 12.0078 7.83723ZM12.0233 19.2649C11.3411 19.2649 10.8294 18.7067 10.8294 18.071C10.8294 17.4198 11.3411 16.8771 12.0233 16.8771C12.6591 16.8771 13.2018 17.4198 13.2018 18.071C13.2018 18.7067 12.6591 19.2649 12.0233 19.2649Z" fill="#F0D12E"/>
</g>
<defs>
<clipPath id="clip0_721_46359">
<rect width="24" height="24" fill="white"/>
</clipPath>
</defs>
</svg>
