<svg width="65" height="39" viewBox="0 0 65 39" fill="none" xmlns="http://www.w3.org/2000/svg">
<path d="M65 19.5C65 30.2 56.3 39 45.5 39C34.8 39 26 30.2 26 19.5C26 8.8 34.7 0 45.4 0C56.3 0 65 8.8 65 19.5Z" fill="#F9B50B"/>
<path d="M38.9 19.6C38.9 18.2 38.7 16.8 38.5 15.5H26.5C26.6 14.8 26.8 14.2 27 13.4H37.7C37.5 12.7 37.2 12 36.9 11.3H27.8C28.1 10.6 28.5 10 28.9 9.2H35.8C35.4 8.5 34.9 7.8 34.3 7.1H30.5C31.1 6.4 31.7 5.8 32.5 5.1C29.1 1.9 24.5 0 19.4 0C8.8 0.3 0 8.8 0 19.5C0 30.2 8.7 39 19.5 39C24.6 39 29.1 37 32.6 33.9C33.3 33.3 33.9 32.6 34.6 31.8H30.6C30.1 31.2 29.6 30.5 29.2 29.8H36C36.4 29.2 36.8 28.5 37.1 27.7H28C27.7 27.1 27.4 26.4 27.2 25.6H37.9C38.5 23.8 38.9 21.8 38.9 19.6Z" fill="#C8191C"/>
<path d="M26.3984 24.4984L26.6984 22.6984C26.5984 22.6984 26.3984 22.7984 26.1984 22.7984C25.4984 22.7984 25.3984 22.3984 25.4984 22.1984L26.0984 18.5984H27.1984L27.4984 16.5984H26.4984L26.6984 15.3984H24.5984C24.5984 15.3984 23.3984 22.1984 23.3984 22.9984C23.3984 24.1984 24.0984 24.7984 25.0984 24.7984C25.6984 24.7984 26.1984 24.5984 26.3984 24.4984Z" fill="white"/>
<path d="M27.1016 21.2016C27.1016 24.1016 29.1016 24.8016 30.7016 24.8016C32.2016 24.8016 32.9016 24.5016 32.9016 24.5016L33.3016 22.5016C33.3016 22.5016 32.2016 23.0016 31.1016 23.0016C28.8016 23.0016 29.2016 21.3016 29.2016 21.3016H33.4016C33.4016 21.3016 33.7016 20.0016 33.7016 19.4016C33.7016 18.1016 33.0016 16.4016 30.7016 16.4016C28.7016 16.3016 27.1016 18.6016 27.1016 21.2016ZM30.7016 18.2016C31.8016 18.2016 31.6016 19.5016 31.6016 19.6016H29.3016C29.4016 19.5016 29.6016 18.2016 30.7016 18.2016Z" fill="white"/>
<path d="M43.8016 24.4984L44.2016 22.1984C44.2016 22.1984 43.2016 22.6984 42.4016 22.6984C41.0016 22.6984 40.3016 21.5984 40.3016 20.2984C40.3016 17.7984 41.5016 16.4984 43.0016 16.4984C44.0016 16.4984 44.9016 17.0984 44.9016 17.0984L45.2016 14.8984C45.2016 14.8984 44.0016 14.3984 42.8016 14.3984C40.4016 14.3984 38.1016 16.4984 38.1016 20.3984C38.1016 22.9984 39.3016 24.6984 41.8016 24.6984C42.7016 24.7984 43.8016 24.4984 43.8016 24.4984Z" fill="white"/>
<path d="M15.0992 16.3008C13.6992 16.3008 12.5992 16.7008 12.5992 16.7008L12.2992 18.5008C12.2992 18.5008 13.1992 18.1008 14.5992 18.1008C15.2992 18.1008 15.8992 18.2008 15.8992 18.8008C15.8992 19.2008 15.7992 19.3008 15.7992 19.3008H14.8992C13.0992 19.3008 11.1992 20.0008 11.1992 22.4008C11.1992 24.3008 12.3992 24.7008 13.1992 24.7008C14.5992 24.7008 15.2992 23.8008 15.3992 23.8008L15.2992 24.6008H16.9992L17.7992 18.9008C17.7992 16.4008 15.7992 16.3008 15.0992 16.3008ZM15.4992 20.9008C15.4992 21.2008 15.2992 22.9008 14.0992 22.9008C13.4992 22.9008 13.2992 22.4008 13.2992 22.1008C13.2992 21.6008 13.5992 20.9008 15.1992 20.9008C15.3992 20.9008 15.4992 20.9008 15.4992 20.9008Z" fill="white"/>
<path d="M19.8008 24.6992C20.3008 24.6992 22.9008 24.7992 22.9008 21.9992C22.9008 19.3992 20.4008 19.8992 20.4008 18.8992C20.4008 18.3992 20.8008 18.1992 21.5008 18.1992C21.8008 18.1992 22.9008 18.2992 22.9008 18.2992L23.2008 16.3992C23.2008 16.3992 22.5008 16.1992 21.2008 16.1992C19.7008 16.1992 18.1008 16.7992 18.1008 18.8992C18.1008 21.2992 20.7008 21.0992 20.7008 21.9992C20.7008 22.5992 20.0008 22.6992 19.5008 22.6992C18.6008 22.6992 17.6008 22.3992 17.6008 22.3992L17.3008 24.2992C17.5008 24.4992 18.1008 24.6992 19.8008 24.6992Z" fill="white"/>
<path d="M61.0016 14.6992L60.6016 17.4992C60.6016 17.4992 59.8016 16.4992 58.6016 16.4992C56.7016 16.4992 55.1016 18.7992 55.1016 21.4992C55.1016 23.1992 55.9016 24.8992 57.7016 24.8992C58.9016 24.8992 59.7016 24.0992 59.7016 24.0992L59.6016 24.7992H61.7016L63.2016 14.8992L61.0016 14.6992ZM60.0016 20.0992C60.0016 21.1992 59.5016 22.6992 58.3016 22.6992C57.6016 22.6992 57.2016 22.0992 57.2016 20.9992C57.2016 19.2992 57.9016 18.2992 58.9016 18.2992C59.6016 18.3992 60.0016 18.8992 60.0016 20.0992Z" fill="white"/>
<path d="M3.80078 24.5992L5.00078 17.1992L5.20078 24.5992H6.60078L9.30078 17.1992L8.20078 24.5992H10.4008L12.1008 14.6992H8.70078L6.60078 20.7992L6.50078 14.6992H3.50078L1.80078 24.5992H3.80078Z" fill="white"/>
<path d="M35.8 24.6C36.4 21.2 36.5 18.4 38 18.9C38.2 17.6 38.5 17 38.7 16.5H38.3C37.4 16.5 36.6 17.7 36.6 17.7L36.8 16.6H34.8L33.5 24.6H35.8Z" fill="white"/>
<path d="M48.5992 16.3008C47.1992 16.3008 46.0992 16.7008 46.0992 16.7008L45.7992 18.5008C45.7992 18.5008 46.6992 18.1008 48.0992 18.1008C48.7992 18.1008 49.3992 18.2008 49.3992 18.8008C49.3992 19.2008 49.2992 19.3008 49.2992 19.3008H48.3992C46.5992 19.3008 44.6992 20.0008 44.6992 22.4008C44.6992 24.3008 45.8992 24.7008 46.6992 24.7008C48.0992 24.7008 48.7992 23.8008 48.8992 23.8008L48.7992 24.6008H50.6992L51.4992 18.9008C51.4992 16.4008 49.2992 16.3008 48.5992 16.3008ZM49.0992 20.9008C49.0992 21.2008 48.8992 22.9008 47.6992 22.9008C47.0992 22.9008 46.8992 22.4008 46.8992 22.1008C46.8992 21.6008 47.1992 20.9008 48.7992 20.9008C48.9992 20.9008 48.9992 20.9008 49.0992 20.9008Z" fill="white"/>
<path d="M53.1008 24.6C53.7008 21.2 53.8008 18.4 55.3008 18.9C55.5008 17.6 55.8008 17 56.0008 16.5H55.6008C54.7008 16.5 53.9008 17.7 53.9008 17.7L54.1008 16.6H52.1008L50.8008 24.6H53.1008Z" fill="white"/>
</svg>
