<svg width="108" height="35" viewBox="0 0 108 35" fill="none" xmlns="http://www.w3.org/2000/svg">
<path fill-rule="evenodd" clip-rule="evenodd" d="M0 0.5H108V34.5H0V0.5Z" fill="#CC1626"/>
<path fill-rule="evenodd" clip-rule="evenodd" d="M37.6826 16.3429C38.0783 16.3429 38.4665 16.2384 38.8025 16.0294C39.4669 15.6262 39.8327 14.9245 39.8327 14.1481C39.8327 13.3492 39.4445 12.6176 38.7427 12.2219C38.4217 12.0353 38.0559 11.9383 37.6826 11.9383C37.3019 11.9383 36.9361 12.0353 36.6076 12.2294C35.9208 12.6325 35.54 13.3567 35.54 14.1481C35.54 14.917 35.8984 15.6188 36.5553 16.0219C36.8913 16.2384 37.2795 16.3429 37.6826 16.3429ZM27.9923 13.3044V9.76578H29.8961C30.3813 9.76578 30.7994 9.94495 31.1428 10.2884V10.2958C31.5011 10.6318 31.6654 11.0424 31.6654 11.5276C31.6654 12.0204 31.4862 12.431 31.1428 12.7819C30.7994 13.1253 30.3813 13.3044 29.8961 13.3044H29.5526H27.9923ZM27.9923 15.0738H29.5526H29.8961C30.3664 15.0738 30.8292 14.9767 31.2697 14.7901C31.6878 14.6035 32.0685 14.3571 32.397 14.0286C32.718 13.7076 32.9719 13.3268 33.151 12.9088C33.3451 12.4683 33.4347 12.0054 33.4347 11.5276C33.4347 11.0573 33.3451 10.5945 33.151 10.1615C32.9719 9.74338 32.718 9.36264 32.397 9.04162C32.0685 8.7206 31.6878 8.46677 31.2697 8.28013C30.8292 8.09349 30.3664 8.00391 29.8961 8.00391H26.2305V17.7987H27.9923V15.0738ZM39.9447 16.9626C39.3325 17.6121 38.459 17.963 37.5482 17.963C35.4206 17.963 33.8677 16.2459 33.8677 14.1481C33.8677 12.0577 35.4131 10.3182 37.5482 10.3182C38.459 10.3182 39.3325 10.6766 39.9447 11.3335V10.4003H41.6095V17.8734H39.9447V16.9626ZM48.6943 16.8431C48.1643 17.4852 47.3356 17.7912 46.4994 17.7912C44.3195 17.7912 43.2295 16.2832 43.2295 14.2078V10.4078H44.9093V14.1182C44.9093 15.3575 45.4095 16.1712 46.7159 16.1712C48.1195 16.1712 48.7092 15.1559 48.7092 13.842V10.4078H50.3666V16.8357C50.3666 19.0753 48.978 20.6207 46.701 20.6207C45.514 20.6207 44.3867 20.2399 43.4759 19.4785L43.3788 19.4038L44.3494 18.3661L44.4315 18.4109C45.1482 18.8439 45.8499 19.0753 46.701 19.0753C47.9478 19.0753 48.6943 18.4034 48.6943 17.1417V16.8431Z" fill="white"/>
<path fill-rule="evenodd" clip-rule="evenodd" d="M77.1756 12.4228L77.2278 12.3183C77.2353 12.3108 77.2353 12.2959 77.2428 12.2884V12.281L77.295 12.1839H77.3025L77.3174 12.1541L77.3323 12.1391L77.3473 12.1018H77.3547C77.3697 12.0719 77.3846 12.0495 77.3995 12.0271L77.407 12.0122C77.4145 12.0047 77.4219 11.9898 77.4294 11.9749L77.4369 11.9674L77.4667 11.9301V11.9226C77.4966 11.8778 77.5265 11.8405 77.5563 11.8032V11.7957C77.5712 11.7808 77.5787 11.7733 77.5862 11.7584H77.5936C78.2954 10.8401 79.3779 10.3026 80.5351 10.3026H80.6918C82.7822 10.3474 84.2902 12.0495 84.2902 14.1175C84.2902 16.2153 82.7449 17.9473 80.6097 17.9473C79.7885 17.9473 78.9822 17.5964 78.4447 16.9768V20.5005H76.7799V13.9533H76.7874C76.8023 13.4904 76.9068 13.035 77.0935 12.602L77.1009 12.5871L77.1084 12.5572L77.1233 12.5348L77.1382 12.4975L77.1532 12.4601L77.1756 12.4228ZM52.0391 7.98828H53.8084V17.7831H52.0391V7.98828ZM56.2198 12.9006L60.3034 17.8129H57.9742L54.0398 12.9006L57.9742 7.98828H60.3034L56.2198 12.9006ZM61.804 14.6102C61.8637 15.7823 62.8044 16.387 63.9392 16.387C64.7305 16.387 65.5218 16.1705 66.2087 15.7674L66.2833 15.7226L67.2165 16.7155L67.112 16.7976C66.1937 17.4994 65.1112 17.9324 63.9392 17.9324C61.6995 17.9324 60.0795 16.3646 60.0795 14.1175C60.0795 11.9226 61.6323 10.2877 63.8496 10.2877C65.3576 10.2877 66.567 11.0118 67.1643 12.393C67.4181 12.9902 67.4928 13.9085 67.2986 14.5281L67.2688 14.6102H61.804ZM70.0385 14.6102C70.0982 15.7823 71.0389 16.387 72.1737 16.387C72.9725 16.387 73.7638 16.1705 74.4432 15.7674L74.5253 15.7226L75.451 16.7155L75.354 16.7976C74.4283 17.4994 73.3457 17.9324 72.1737 17.9324C69.934 17.9324 68.3214 16.3646 68.3214 14.1175C68.3214 11.9226 69.8668 10.2877 72.0915 10.2877C73.5921 10.2877 74.8015 11.0118 75.3988 12.393C75.6601 12.9902 75.7273 13.9085 75.5332 14.5281L75.5108 14.6102H70.0385ZM87.0002 14.6102C87.06 15.7823 88.0006 16.387 89.1354 16.387C89.9267 16.387 90.7255 16.1705 91.4049 15.7674L91.487 15.7151L92.4128 16.7155L92.3082 16.7976C91.39 17.4994 90.3075 17.9324 89.1354 17.9324C86.8957 17.9324 85.2832 16.3646 85.2832 14.1175C85.2832 11.9226 86.8285 10.2877 89.0533 10.2877C90.5538 10.2877 91.7633 11.0118 92.3605 12.393C92.6218 12.9902 92.689 13.9085 92.4949 14.5281L92.4725 14.6102H87.0002ZM78.4298 14.1175C78.4298 17.156 82.618 16.9022 82.618 14.1175C82.618 11.3328 78.4298 11.079 78.4298 14.1175ZM61.9011 13.2814H65.7383C65.716 13.1544 65.6637 13.0275 65.6114 12.9081C65.283 12.2138 64.6334 11.833 63.8645 11.833C63.0284 11.833 62.237 12.2884 61.9533 13.1097C61.9309 13.1619 61.916 13.2216 61.9011 13.2814ZM70.1356 13.2814H73.9803C73.9505 13.1544 73.9057 13.0275 73.8459 12.9081C73.5175 12.2138 72.868 11.833 72.1065 11.833C71.2629 11.833 70.4715 12.2884 70.1878 13.1097C70.1729 13.1619 70.1505 13.2216 70.1356 13.2814ZM87.0973 13.2814H90.9421C90.9122 13.1544 90.8674 13.0275 90.8077 12.9081C90.4792 12.2138 89.8297 11.833 89.0682 11.833C88.2246 11.833 87.4332 12.2884 87.1496 13.1022C87.1272 13.1619 87.1122 13.2216 87.0973 13.2814ZM95.5035 11.3776C96.1679 10.6386 97.1011 10.3101 98.109 10.3101H98.4972L98.5047 11.9749H97.7805C96.1829 11.9749 95.5184 13.0649 95.5184 14.558V17.8428H93.7939V10.3922H95.5035V11.3776Z" fill="#FFCC00"/>
<path fill-rule="evenodd" clip-rule="evenodd" d="M28.6194 24.0828H26.7083V27.0541H26.2305V23.6349H29.1047V27.0541H28.6194V24.0828ZM32.509 24.0828H31.0756C31.0756 24.7622 31.0681 25.6506 30.8964 26.3075C30.8143 26.6136 30.6725 26.9421 30.3515 27.0541C30.232 27.0989 30.1126 27.1063 29.9931 27.1063C29.8811 27.1063 29.7169 27.0839 29.6124 27.0541L29.5377 27.0317L29.6273 26.5763L29.7169 26.5987C29.7691 26.6136 29.8811 26.6435 29.9408 26.6435C29.9931 26.6435 30.0528 26.636 30.1051 26.6211C30.3291 26.5613 30.4112 26.2777 30.456 26.0836C30.6127 25.4415 30.6127 24.5531 30.6127 23.8887V23.6349H32.9943V27.0541H32.509V24.0828ZM36.2418 24.9861V24.9563C36.2418 24.3291 35.861 24.0455 35.2563 24.0455C34.898 24.0455 34.5844 24.135 34.2709 24.2918L34.1887 24.3366L34.0096 23.9036L34.0842 23.8663C34.4724 23.6871 34.8382 23.5826 35.2713 23.5826C35.6669 23.5826 36.0775 23.6722 36.3612 23.9633C36.6225 24.2246 36.7196 24.5755 36.7196 24.9413V27.0541H36.2418V26.6584C35.9432 26.972 35.5325 27.1287 35.0846 27.1287C34.3978 27.1287 33.7408 26.7704 33.7408 26.0089C33.7408 25.1802 34.5247 24.8667 35.2489 24.8667C35.5997 24.8667 35.9133 24.904 36.2418 24.9861ZM38.4889 24.0828H37.272V23.6349H40.191V24.0828H38.9667V27.0541H38.4889V24.0828ZM41.0869 25.5535C41.169 26.1806 41.617 26.6659 42.2739 26.6659C42.7069 26.6659 43.0354 26.4942 43.3266 26.1806L43.3863 26.1209L43.7297 26.427L43.67 26.4942C43.2743 26.9122 42.8488 27.1287 42.259 27.1287C41.2586 27.1287 40.5793 26.3001 40.5793 25.337C40.5793 24.4038 41.2362 23.5527 42.2067 23.5527C43.2221 23.5527 43.7894 24.3963 43.7894 25.3445C43.7894 25.3893 43.782 25.4341 43.782 25.4788L43.767 25.5535H41.0869ZM41.3631 23.2616V22.5822H41.9753V23.2616H41.3631ZM42.4083 23.2616V22.5822H43.013V23.2616H42.4083ZM45.4543 25.128L44.0731 23.6349H44.7002L46.4397 25.5684V23.6349H46.925V25.5684L48.6644 23.6349H49.2916L47.9104 25.128L49.3513 27.0541H48.754L47.5894 25.4788L46.925 26.203V27.0541H46.4397V26.203L45.7753 25.4788L44.6107 27.0541H44.0209L45.4543 25.128ZM50.3367 25.0757H52.33V23.6349H52.8153V27.0541H52.33V25.5311H50.3367V27.0541H49.8589V23.6349H50.3367V25.0757ZM56.0628 24.9861V24.9563C56.0628 24.3291 55.6746 24.0455 55.0774 24.0455C54.719 24.0455 54.4055 24.135 54.0919 24.2918L54.0098 24.3366L53.8306 23.9036L53.9053 23.8663C54.2935 23.6871 54.6593 23.5826 55.0923 23.5826C55.488 23.5826 55.8911 23.6722 56.1823 23.9633C56.4436 24.2246 56.5406 24.5755 56.5406 24.9413V27.0541H56.0628V26.6584C55.7567 26.972 55.3536 27.1287 54.9057 27.1287C54.2114 27.1287 53.5619 26.7704 53.5619 26.0089C53.5619 25.1802 54.3457 24.8667 55.0699 24.8667C55.4208 24.8667 55.7269 24.904 56.0628 24.9861ZM58.1905 25.7252C57.7052 25.5908 57.317 25.225 57.317 24.6875C57.317 23.9633 57.9367 23.6349 58.5936 23.6349H60.139V27.0541H59.6537V25.7999H58.7056L57.7426 27.0541H57.1378L58.1905 25.7252ZM65.4619 24.0828H63.5508V27.0541H63.0655V23.6349H65.9397V27.0541H65.4619V24.0828ZM69.3515 24.0828H67.9181C67.9181 24.7622 67.9106 25.6506 67.7315 26.3075C67.6493 26.6136 67.515 26.9421 67.1865 27.0541C67.0745 27.0989 66.9551 27.1063 66.8356 27.1063C66.7236 27.1063 66.5594 27.0839 66.4549 27.0541L66.3802 27.0317L66.4698 26.5763L66.5594 26.5987C66.6116 26.6136 66.7236 26.6435 66.7833 26.6435C66.8356 26.6435 66.8953 26.636 66.9476 26.6211C67.1641 26.5613 67.2462 26.2777 67.2985 26.0836C67.4478 25.4415 67.4478 24.5531 67.4478 23.8887V23.6349H69.8293V27.0541H69.3515V24.0828ZM73.0843 24.9861V24.9563C73.0843 24.3291 72.6961 24.0455 72.0988 24.0455C71.7405 24.0455 71.4269 24.135 71.1134 24.2918L71.0312 24.3366L70.8521 23.9036L70.9267 23.8663C71.3149 23.6871 71.6807 23.5826 72.1137 23.5826C72.5094 23.5826 72.9126 23.6722 73.2037 23.9633C73.465 24.2246 73.5546 24.5755 73.5546 24.9413V27.0541H73.0843V26.6584C72.7782 26.972 72.3676 27.1287 71.9196 27.1287C71.2328 27.1287 70.5833 26.7704 70.5833 26.0089C70.5833 25.1802 71.3672 24.8667 72.0914 24.8667C72.4422 24.8667 72.7483 24.904 73.0843 24.9861ZM75.3314 24.0828H74.107V23.6349H77.0261V24.0828H75.8092V27.0541H75.3314V24.0828ZM79.6241 26.8525C79.3927 27.0242 79.1612 27.1287 78.8477 27.1287C77.8473 27.1287 77.4367 26.2179 77.4367 25.3295C77.4367 24.4486 77.8473 23.5527 78.8477 23.5527C79.1687 23.5527 79.3927 23.6573 79.6241 23.8364V22.418H80.1019V23.8364C80.3259 23.6573 80.5573 23.5527 80.8783 23.5527C81.8787 23.5527 82.2893 24.4561 82.2893 25.3445C82.2893 26.2254 81.8712 27.1287 80.8783 27.1287C80.5349 27.1287 80.3333 27.0391 80.1019 26.86V28.0769H79.6241V26.8525ZM84.626 27.1287C83.6256 27.1287 82.8716 26.3299 82.8716 25.3445C82.8716 24.359 83.6406 23.5527 84.6335 23.5527C85.6339 23.5527 86.3879 24.359 86.3879 25.3445C86.3879 26.3225 85.6189 27.1287 84.626 27.1287ZM87.6645 24.1873C87.978 23.7991 88.3812 23.5527 88.9187 23.5527C89.9042 23.5527 90.5835 24.3889 90.5835 25.3445C90.5835 26.2926 89.8967 27.1287 88.9187 27.1287C88.3961 27.1287 87.978 26.9048 87.6645 26.524V28.0769H87.1792V23.6349H87.6645V24.1873ZM93.0845 25.4415L94.3686 23.6349H94.7717V27.0541H94.2939V24.5158L93.0695 26.203L91.8601 24.5233V27.0541H91.3898V23.6349H91.8004L93.0845 25.4415ZM98.0267 24.9861V24.9563C98.0267 24.3291 97.6385 24.0455 97.0412 24.0455C96.6829 24.0455 96.3693 24.135 96.0558 24.2918L95.9736 24.3366L95.7945 23.9036L95.8691 23.8663C96.2573 23.6871 96.6232 23.5826 97.0562 23.5826C97.4518 23.5826 97.855 23.6722 98.1461 23.9633C98.4074 24.2246 98.5045 24.5755 98.5045 24.9413V27.0541H98.0267V26.6584C97.7206 26.972 97.3174 27.1287 96.8695 27.1287C96.1752 27.1287 95.5257 26.7704 95.5257 26.0089C95.5257 25.1802 96.3096 24.8667 97.0338 24.8667C97.3846 24.8667 97.6907 24.904 98.0267 24.9861ZM36.2492 25.449C35.9133 25.3669 35.5848 25.3221 35.2265 25.3221C34.7785 25.3221 34.2485 25.4714 34.2485 26.0089C34.2485 26.4867 34.674 26.6659 35.0995 26.6659C35.6371 26.6659 36.2492 26.3523 36.2492 25.7476V25.449ZM41.0944 25.1056H43.2743C43.1997 24.5158 42.8488 24.0081 42.1993 24.0081C41.5722 24.0081 41.169 24.5307 41.0944 25.1056ZM56.0703 25.449C55.7269 25.3669 55.3984 25.3221 55.0475 25.3221C54.5996 25.3221 54.0695 25.4714 54.0695 26.0089C54.0695 26.4867 54.495 26.6659 54.9206 26.6659C55.4581 26.6659 56.0703 26.3523 56.0703 25.7476V25.449ZM59.6537 25.3519V24.0828H58.6384C58.2353 24.0828 57.8247 24.247 57.8247 24.7024C57.8247 25.1578 58.2502 25.3519 58.6534 25.3519H59.6537ZM73.0917 25.449C72.7483 25.3669 72.4198 25.3221 72.069 25.3221C71.621 25.3221 71.091 25.4714 71.091 26.0089C71.091 26.4867 71.5165 26.6659 71.942 26.6659C72.4796 26.6659 73.0917 26.3523 73.0917 25.7476V25.449ZM79.6241 26.3225V24.359C79.4151 24.15 79.1836 24.0231 78.8775 24.0231C78.131 24.0231 77.9369 24.7248 77.9369 25.3519C77.9369 26.0089 78.1086 26.6584 78.8775 26.6584C79.1836 26.6584 79.4151 26.539 79.6241 26.3225ZM80.1019 24.359V26.3225C80.3109 26.539 80.5424 26.6584 80.8484 26.6584C81.6174 26.6584 81.7816 25.994 81.7816 25.3445C81.7816 24.7174 81.5875 24.0231 80.8484 24.0231C80.5424 24.0231 80.3109 24.15 80.1019 24.359ZM84.6335 26.6659C85.3502 26.6659 85.8802 26.0313 85.8802 25.3445C85.8802 24.6427 85.3427 24.0156 84.626 24.0156C83.9093 24.0156 83.3793 24.6427 83.3793 25.3445C83.3793 26.0537 83.9093 26.6659 84.6335 26.6659ZM88.8888 26.6584C89.6429 26.6584 90.0759 26.0686 90.0759 25.3445C90.0759 24.6427 89.613 24.0231 88.8888 24.0231C88.1647 24.0231 87.6421 24.6502 87.6421 25.3519C87.6421 26.0462 88.1721 26.6584 88.8888 26.6584ZM98.0341 25.449C97.6907 25.3669 97.3622 25.3221 97.0114 25.3221C96.5634 25.3221 96.0334 25.4714 96.0334 26.0089C96.0334 26.4867 96.4589 26.6659 96.8844 26.6659C97.422 26.6659 98.0341 26.3523 98.0341 25.7476V25.449Z" fill="white"/>
<path fill-rule="evenodd" clip-rule="evenodd" d="M14.4297 17.836L19.3495 12.9162L14.4297 8.00391C15.654 8.00391 16.8784 8.00391 18.1027 8.00391L23.0225 12.9162L18.1027 17.836C16.8784 17.836 15.654 17.836 14.4297 17.836ZM7.95703 17.836L12.8768 12.9162L7.95703 8.00391C9.18138 8.00391 10.4057 8.00391 11.6301 8.00391L16.5499 12.9162L11.6301 17.836C10.4057 17.836 9.18138 17.836 7.95703 17.836Z" fill="white"/>
</svg>
