<svg width="24" height="24" viewBox="0 0 24 24" fill="none" xmlns="http://www.w3.org/2000/svg">
<path d="M17.722 1.50154C17.3287 1.12692 16.8064 0.917969 16.2633 0.917969C15.7201 0.917969 15.1978 1.12692 14.8045 1.50154L7.8295 8.47654C7.64272 8.66492 7.42111 8.8152 7.177 8.91904L3.907 10.2915C3.60539 10.3884 3.33364 10.5609 3.11771 10.7927C2.90179 11.0244 2.74891 11.3077 2.67367 11.6154C2.59844 11.9231 2.60336 12.245 2.68798 12.5503C2.7726 12.8555 2.93408 13.134 3.157 13.359L6.352 16.554L1.852 21.0915C1.77349 21.1588 1.70972 21.2415 1.66471 21.3346C1.61969 21.4276 1.59439 21.529 1.5904 21.6322C1.58641 21.7355 1.60382 21.8385 1.64152 21.9348C1.67923 22.031 1.73642 22.1184 1.80951 22.1915C1.8826 22.2646 1.97002 22.3218 2.06626 22.3595C2.1625 22.3972 2.2655 22.4146 2.36879 22.4106C2.47208 22.4066 2.57343 22.3814 2.66648 22.3363C2.75953 22.2913 2.84227 22.2276 2.9095 22.149L7.447 17.649L10.642 20.844C10.8129 21.016 11.0163 21.1523 11.2403 21.245C11.4643 21.3377 11.7046 21.385 11.947 21.384C12.0907 21.3839 12.2339 21.3688 12.3745 21.339C12.6731 21.2706 12.9497 21.1283 13.179 20.9252C13.4083 20.7221 13.583 20.4647 13.687 20.1765L15.097 16.854C15.2008 16.6099 15.3511 16.3883 15.5395 16.2015L22.5145 9.22654C22.707 9.03551 22.8598 8.80826 22.9641 8.5579C23.0684 8.30753 23.1221 8.039 23.1221 7.76779C23.1221 7.49658 23.0684 7.22805 22.9641 6.97768C22.8598 6.72732 22.707 6.50007 22.5145 6.30904L17.722 1.50154Z" fill="#31A0DF"/>
</svg>
