<svg width="21" height="20" viewBox="0 0 21 20" fill="none" xmlns="http://www.w3.org/2000/svg">
<g>
<path d="M19.9864 7.27596C19.9223 7.07739 19.8012 6.90206 19.6382 6.77184C19.4751 6.64162 19.2774 6.56227 19.0695 6.54367L13.2858 6.01847L10.9988 0.665432C10.8301 0.273142 10.4461 0.0192871 10.0194 0.0192871C9.59271 0.0192871 9.20864 0.273181 9.04003 0.66641L6.75299 6.0185L0.968367 6.54367C0.76078 6.56269 0.563339 6.64221 0.400523 6.77238C0.237706 6.90255 0.116676 7.07765 0.0524371 7.27596C-0.0795003 7.68175 0.0423393 8.1268 0.363866 8.40735L4.73569 12.2414L3.44653 17.9201C3.3522 18.3376 3.51424 18.7692 3.8607 19.0196C4.04688 19.1542 4.26477 19.2227 4.48445 19.2227C4.67389 19.2227 4.86175 19.1716 5.03044 19.0707L10.0194 16.089L15.0066 19.0707C15.3715 19.2903 15.8315 19.2702 16.1772 19.0196C16.3464 18.8971 16.4759 18.7276 16.5496 18.5321C16.6232 18.3366 16.6377 18.1238 16.5914 17.9201L15.3023 12.2414L19.674 8.40813C19.8313 8.27078 19.9448 8.09025 20.0003 7.88896C20.0558 7.68768 20.051 7.47452 19.9864 7.27596Z" fill="#FCD403"/>
</g>
</svg>
