<svg width="411" height="164" viewBox="0 0 411 164" fill="none" xmlns="http://www.w3.org/2000/svg">
<g clip-path="url(#clip0_771_35127)">
<path d="M248.989 22.3017L208.444 14.1154C207.008 13.8245 205.615 14.7516 205.324 16.1877L199.803 43.5281C199.513 44.9642 200.44 46.3579 201.876 46.6487L217.225 49.7512L221.327 54.8048L227.072 51.7387L242.421 54.8411C243.857 55.132 245.251 54.2049 245.541 52.7688L251.062 25.4284C251.353 23.9923 250.426 22.5987 248.989 22.3078V22.3017Z" fill="#FCD403"/>
<path d="M226.206 29.9002C226.206 29.9002 226.249 25.8525 221.31 25.7555C218.838 25.7071 217.571 27.2038 216.923 28.7186C216.232 30.3244 216.22 32.1422 216.796 33.7965C217.553 35.9536 219.262 39.5166 222.958 42.9584C223.243 43.219 223.643 43.3159 224.007 43.1887C226.006 42.5161 232.538 40.0135 234.884 35.3901C234.884 35.3901 237.519 29.9972 231.902 27.8339C231.902 27.8339 227.582 26.5736 226.206 29.9002Z" fill="white"/>
<path d="M184.925 0.336301L160.014 7.18957C159.135 7.43195 158.614 8.34087 158.856 9.22556L163.48 26.0224C163.722 26.9011 164.631 27.4222 165.516 27.1798L174.945 24.5863L178.653 26.2466L180.992 22.92L190.421 20.3265C191.3 20.0841 191.821 19.1752 191.578 18.2905L186.955 1.49366C186.712 0.615037 185.803 0.0939217 184.919 0.336301H184.925Z" fill="#FCD403"/>
<path d="M174.361 10.9888C174.361 10.9888 173.246 8.71649 170.464 10.0556C169.077 10.7222 168.786 11.9159 168.853 12.9399C168.919 14.0306 169.422 15.0486 170.21 15.8061C171.24 16.7938 173.191 18.3026 176.227 19.1812C176.457 19.2479 176.706 19.1812 176.875 19.0115C177.803 18.0723 180.742 14.8366 180.742 11.6008C180.742 11.6008 180.693 7.84998 176.948 8.22567C176.948 8.22567 174.185 8.74072 174.355 10.9827L174.361 10.9888Z" fill="white"/>
<path d="M235.884 64.4092L139.572 85.6841C136.167 86.4354 134.015 89.8045 134.767 93.2099L149.11 158.161C149.861 161.567 153.231 163.718 156.636 162.967L193.097 154.914L206.919 161.973L216.481 149.751L252.942 141.698C256.347 140.947 258.498 137.577 257.747 134.172L243.404 69.2205C242.653 65.815 239.283 63.6639 235.878 64.4153L235.884 64.4092Z" fill="#FCD403"/>
<path d="M193.534 102.966C193.534 102.966 189.722 94.0945 178.863 98.6512C173.434 100.93 172.113 105.42 172.149 109.346C172.192 113.521 173.919 117.49 176.773 120.538C180.505 124.513 187.662 130.627 199.06 134.572C199.933 134.875 200.896 134.687 201.575 134.063C205.289 130.663 217.118 118.908 217.766 106.559C217.766 106.559 218.305 92.2585 203.968 92.9553C203.968 92.9553 193.34 94.3793 193.54 102.966H193.534Z" fill="white"/>
<path d="M80.7387 36.0994C80.7387 36.0994 79.5025 33.0273 75.7395 34.5058C73.8549 35.245 73.3702 36.7781 73.352 38.1233C73.3338 39.5533 73.8913 40.9349 74.8487 42.0014C76.097 43.395 78.5087 45.5461 82.3869 46.9944C82.6838 47.1034 83.0171 47.0489 83.2534 46.8368C84.5563 45.6976 88.7071 41.759 89.0222 37.5234C89.0222 37.5234 89.3191 32.6213 84.3926 32.7485C84.3926 32.7485 80.7326 33.1545 80.7326 36.0994H80.7387Z" fill="#E5F7F9"/>
<path d="M99.2748 25.2044C99.2748 25.2044 99.4747 23.1866 97.0206 22.9199C95.7905 22.7866 95.0936 23.4774 94.6997 24.1985C94.2816 24.968 94.1968 25.8709 94.4089 26.7253C94.6876 27.8342 95.3845 29.6823 97.0751 31.5668C97.2024 31.7122 97.4023 31.7728 97.5902 31.7304C98.6203 31.482 101.983 30.5306 103.359 28.325C103.359 28.325 104.91 25.7558 102.208 24.4227C102.208 24.4227 100.111 23.6047 99.2748 25.1983V25.2044Z" fill="#E5F7F9"/>
<path d="M81.8266 9.6739C81.8266 9.6739 80.9419 7.85 78.7119 8.90435C77.597 9.43152 77.3606 10.3889 77.403 11.207C77.4515 12.0795 77.8515 12.8975 78.4756 13.5096C79.2936 14.3094 80.851 15.5213 83.2809 16.2424C83.4687 16.2969 83.6687 16.2484 83.802 16.1091C84.5473 15.3638 86.9167 12.7885 86.9409 10.189C86.9409 10.189 86.9227 7.18346 83.9232 7.46825C83.9232 7.46825 81.7054 7.86818 81.8326 9.66784L81.8266 9.6739Z" fill="#E5F7F9"/>
<path d="M331.011 56.5438C331.011 56.5438 331.277 54.5381 328.829 54.1927C327.605 54.0231 326.884 54.6896 326.472 55.3986C326.03 56.156 325.914 57.0589 326.102 57.9132C326.351 59.0282 326.981 60.9006 328.611 62.8396C328.738 62.985 328.932 63.0577 329.12 63.0153C330.156 62.8032 333.55 61.9489 334.992 59.7917C334.992 59.7917 336.628 57.2709 333.968 55.8591C333.968 55.8591 331.895 54.9744 331.011 56.5438Z" fill="#E5F7F9"/>
</g>
<defs>
<clipPath id="clip0_771_35127">
<rect width="410.556" height="163" fill="white" transform="translate(0 0.275879)"/>
</clipPath>
</defs>
</svg>
