<svg width="98" height="31" viewBox="0 0 98 31" fill="none" xmlns="http://www.w3.org/2000/svg">
<path d="M91.4081 0.886719H85.2473C83.3847 0.886719 81.9519 1.45982 81.0923 3.32239L69.3438 30.1148H77.6537C77.6537 30.1148 79.0864 26.5329 79.373 25.6733C80.2326 25.6733 88.3993 25.6733 89.5455 25.6733C89.8321 26.6762 90.5484 29.9715 90.5484 29.9715H97.9987L91.4081 0.886719ZM81.6654 19.6557C82.3818 17.9364 84.8174 11.4891 84.8174 11.4891C84.8174 11.6323 85.5338 9.76976 85.8204 8.76684L86.3935 11.3458C86.3935 11.3458 87.9695 18.3663 88.256 19.799H81.6654V19.6557Z" fill="#3362AB"/>
<path d="M69.9174 20.5155C69.9174 26.5331 64.473 30.5448 56.0198 30.5448C52.4379 30.5448 48.9993 29.8284 47.1367 28.9687L48.2829 22.3781L49.2858 22.8079C51.8648 23.9541 53.5841 24.3839 56.7361 24.3839C59.0285 24.3839 61.4642 23.5243 61.4642 21.5184C61.4642 20.229 60.4613 19.3693 57.3092 17.9366C54.3005 16.5038 50.2888 14.2114 50.2888 10.0564C50.2888 4.32545 55.8765 0.457031 63.7566 0.457031C66.7654 0.457031 69.3443 1.03013 70.9203 1.7465L69.7741 8.0506L69.201 7.4775C67.7683 6.9044 65.9057 6.3313 63.1835 6.3313C60.1747 6.47458 58.742 7.76405 58.742 8.91025C58.742 10.1997 60.4613 11.2026 63.1835 12.4921C67.7683 14.6412 69.9174 17.0769 69.9174 20.5155Z" fill="#3362AB"/>
<path d="M0 1.17466L0.143275 0.601562H12.4649C14.1842 0.601562 15.4737 1.17466 15.9035 3.03724L18.6257 15.932C15.9035 9.05478 9.59941 3.46706 0 1.17466Z" fill="#F9B50B"/>
<path d="M35.9608 0.885462L23.4959 29.9703H15.0426L7.87891 5.61353C13.0368 8.90885 17.335 14.0667 18.9111 17.6486L19.7707 20.6574L27.5076 0.742188H35.9608V0.885462Z" fill="#3362AB"/>
<path d="M39.2568 0.742188H47.1369L42.1223 29.9703H34.2422L39.2568 0.742188Z" fill="#3362AB"/>
</svg>
